G04 #@! TF.FileFunction,Soldermask,Top*
%FSLAX46Y46*%
G04 Gerber Fmt 4.6, Leading zero omitted, Abs format (unit mm)*
G04 Created by KiCad (PCBNEW 4.0.7-e2-6376~58~ubuntu16.04.1) date Wed Apr 25 13:41:01 2018*
%MOMM*%
%LPD*%
G01*
G04 APERTURE LIST*
%ADD10C,0.100000*%
%ADD11C,2.400000*%
%ADD12R,2.100000X2.100000*%
%ADD13O,2.100000X2.100000*%
%ADD14C,1.900000*%
%ADD15C,2.000000*%
%ADD16R,2.000000X2.000000*%
%ADD17R,2.200000X2.200000*%
%ADD18C,2.200000*%
%ADD19R,3.900000X3.900000*%
%ADD20O,2.000000X2.000000*%
%ADD21O,2.200000X2.200000*%
%ADD22C,1.800000*%
%ADD23O,1.800000X1.800000*%
%ADD24C,5.700000*%
%ADD25C,1.924000*%
G04 APERTURE END LIST*
D10*
D11*
X112268000Y-101020000D03*
X112268000Y-96520000D03*
X118768000Y-101020000D03*
X118768000Y-96520000D03*
D12*
X53340000Y-110998000D03*
D13*
X50800000Y-110998000D03*
X53340000Y-108458000D03*
X50800000Y-108458000D03*
X53340000Y-105918000D03*
X50800000Y-105918000D03*
X53340000Y-103378000D03*
X50800000Y-103378000D03*
X53340000Y-100838000D03*
X50800000Y-100838000D03*
X53340000Y-98298000D03*
X50800000Y-98298000D03*
X53340000Y-95758000D03*
X50800000Y-95758000D03*
X53340000Y-93218000D03*
X50800000Y-93218000D03*
D14*
X99060000Y-31242000D03*
X94180000Y-31242000D03*
D15*
X79248000Y-39116000D03*
X79248000Y-34116000D03*
D12*
X111760000Y-49784000D03*
D13*
X111760000Y-47244000D03*
X114300000Y-49784000D03*
X114300000Y-47244000D03*
X116840000Y-49784000D03*
X116840000Y-47244000D03*
D15*
X92964000Y-26924000D03*
X87964000Y-26924000D03*
X96774000Y-26924000D03*
X101774000Y-26924000D03*
X80010000Y-43180000D03*
X75010000Y-43180000D03*
X104140000Y-32004000D03*
X104140000Y-27004000D03*
D16*
X76454000Y-30480000D03*
D15*
X76454000Y-27980000D03*
D17*
X114046000Y-29464000D03*
D18*
X114046000Y-32004000D03*
D17*
X109474000Y-29464000D03*
D18*
X109474000Y-32004000D03*
D17*
X118618000Y-29464000D03*
D18*
X118618000Y-32004000D03*
D12*
X54610000Y-53340000D03*
D13*
X57150000Y-53340000D03*
X54610000Y-55880000D03*
X57150000Y-55880000D03*
X54610000Y-58420000D03*
X57150000Y-58420000D03*
X54610000Y-60960000D03*
X57150000Y-60960000D03*
X54610000Y-63500000D03*
X57150000Y-63500000D03*
X54610000Y-66040000D03*
X57150000Y-66040000D03*
X54610000Y-68580000D03*
X57150000Y-68580000D03*
X54610000Y-71120000D03*
X57150000Y-71120000D03*
D19*
X68072000Y-33782000D03*
X68072000Y-27782000D03*
X63372000Y-30782000D03*
D16*
X72644000Y-39878000D03*
D15*
X72644000Y-37378000D03*
X62484000Y-37846000D03*
X62484000Y-42846000D03*
D16*
X115443000Y-53086000D03*
D20*
X123063000Y-70866000D03*
X115443000Y-55626000D03*
X123063000Y-68326000D03*
X115443000Y-58166000D03*
X123063000Y-65786000D03*
X115443000Y-60706000D03*
X123063000Y-63246000D03*
X115443000Y-63246000D03*
X123063000Y-60706000D03*
X115443000Y-65786000D03*
X123063000Y-58166000D03*
X115443000Y-68326000D03*
X123063000Y-55626000D03*
X115443000Y-70866000D03*
X123063000Y-53086000D03*
D16*
X51816000Y-29210000D03*
D20*
X59436000Y-46990000D03*
X51816000Y-31750000D03*
X59436000Y-44450000D03*
X51816000Y-34290000D03*
X59436000Y-41910000D03*
X51816000Y-36830000D03*
X59436000Y-39370000D03*
X51816000Y-39370000D03*
X59436000Y-36830000D03*
X51816000Y-41910000D03*
X59436000Y-34290000D03*
X51816000Y-44450000D03*
X59436000Y-31750000D03*
X51816000Y-46990000D03*
X59436000Y-29210000D03*
D16*
X104013000Y-53086000D03*
D20*
X111633000Y-70866000D03*
X104013000Y-55626000D03*
X111633000Y-68326000D03*
X104013000Y-58166000D03*
X111633000Y-65786000D03*
X104013000Y-60706000D03*
X111633000Y-63246000D03*
X104013000Y-63246000D03*
X111633000Y-60706000D03*
X104013000Y-65786000D03*
X111633000Y-58166000D03*
X104013000Y-68326000D03*
X111633000Y-55626000D03*
X104013000Y-70866000D03*
X111633000Y-53086000D03*
D16*
X92583000Y-74041000D03*
D20*
X100203000Y-91821000D03*
X92583000Y-76581000D03*
X100203000Y-89281000D03*
X92583000Y-79121000D03*
X100203000Y-86741000D03*
X92583000Y-81661000D03*
X100203000Y-84201000D03*
X92583000Y-84201000D03*
X100203000Y-81661000D03*
X92583000Y-86741000D03*
X100203000Y-79121000D03*
X92583000Y-89281000D03*
X100203000Y-76581000D03*
X92583000Y-91821000D03*
X100203000Y-74041000D03*
D16*
X26670000Y-34290000D03*
D20*
X44450000Y-26670000D03*
X29210000Y-34290000D03*
X41910000Y-26670000D03*
X31750000Y-34290000D03*
X39370000Y-26670000D03*
X34290000Y-34290000D03*
X36830000Y-26670000D03*
X36830000Y-34290000D03*
X34290000Y-26670000D03*
X39370000Y-34290000D03*
X31750000Y-26670000D03*
X41910000Y-34290000D03*
X29210000Y-26670000D03*
X44450000Y-34290000D03*
X26670000Y-26670000D03*
D16*
X26670000Y-123495758D03*
D20*
X44450000Y-115875758D03*
X29210000Y-123495758D03*
X41910000Y-115875758D03*
X31750000Y-123495758D03*
X39370000Y-115875758D03*
X34290000Y-123495758D03*
X36830000Y-115875758D03*
X36830000Y-123495758D03*
X34290000Y-115875758D03*
X39370000Y-123495758D03*
X31750000Y-115875758D03*
X41910000Y-123495758D03*
X29210000Y-115875758D03*
X44450000Y-123495758D03*
X26670000Y-115875758D03*
D16*
X115443000Y-74041000D03*
D20*
X123063000Y-91821000D03*
X115443000Y-76581000D03*
X123063000Y-89281000D03*
X115443000Y-79121000D03*
X123063000Y-86741000D03*
X115443000Y-81661000D03*
X123063000Y-84201000D03*
X115443000Y-84201000D03*
X123063000Y-81661000D03*
X115443000Y-86741000D03*
X123063000Y-79121000D03*
X115443000Y-89281000D03*
X123063000Y-76581000D03*
X115443000Y-91821000D03*
X123063000Y-74041000D03*
D16*
X26670000Y-80315758D03*
D20*
X44450000Y-72695758D03*
X29210000Y-80315758D03*
X41910000Y-72695758D03*
X31750000Y-80315758D03*
X39370000Y-72695758D03*
X34290000Y-80315758D03*
X36830000Y-72695758D03*
X36830000Y-80315758D03*
X34290000Y-72695758D03*
X39370000Y-80315758D03*
X31750000Y-72695758D03*
X41910000Y-80315758D03*
X29210000Y-72695758D03*
X44450000Y-80315758D03*
X26670000Y-72695758D03*
D16*
X92583000Y-53086000D03*
D20*
X100203000Y-70866000D03*
X92583000Y-55626000D03*
X100203000Y-68326000D03*
X92583000Y-58166000D03*
X100203000Y-65786000D03*
X92583000Y-60706000D03*
X100203000Y-63246000D03*
X92583000Y-63246000D03*
X100203000Y-60706000D03*
X92583000Y-65786000D03*
X100203000Y-58166000D03*
X92583000Y-68326000D03*
X100203000Y-55626000D03*
X92583000Y-70866000D03*
X100203000Y-53086000D03*
D16*
X104013000Y-74041000D03*
D20*
X111633000Y-91821000D03*
X104013000Y-76581000D03*
X111633000Y-89281000D03*
X104013000Y-79121000D03*
X111633000Y-86741000D03*
X104013000Y-81661000D03*
X111633000Y-84201000D03*
X104013000Y-84201000D03*
X111633000Y-81661000D03*
X104013000Y-86741000D03*
X111633000Y-79121000D03*
X104013000Y-89281000D03*
X111633000Y-76581000D03*
X104013000Y-91821000D03*
X111633000Y-74041000D03*
D16*
X26670000Y-45085000D03*
D20*
X44450000Y-37465000D03*
X29210000Y-45085000D03*
X41910000Y-37465000D03*
X31750000Y-45085000D03*
X39370000Y-37465000D03*
X34290000Y-45085000D03*
X36830000Y-37465000D03*
X36830000Y-45085000D03*
X34290000Y-37465000D03*
X39370000Y-45085000D03*
X31750000Y-37465000D03*
X41910000Y-45085000D03*
X29210000Y-37465000D03*
X44450000Y-45085000D03*
X26670000Y-37465000D03*
D16*
X26670000Y-112700758D03*
D20*
X44450000Y-105080758D03*
X29210000Y-112700758D03*
X41910000Y-105080758D03*
X31750000Y-112700758D03*
X39370000Y-105080758D03*
X34290000Y-112700758D03*
X36830000Y-105080758D03*
X36830000Y-112700758D03*
X34290000Y-105080758D03*
X39370000Y-112700758D03*
X31750000Y-105080758D03*
X41910000Y-112700758D03*
X29210000Y-105080758D03*
X44450000Y-112700758D03*
X26670000Y-105080758D03*
D16*
X115443000Y-105791000D03*
D20*
X123063000Y-123571000D03*
X115443000Y-108331000D03*
X123063000Y-121031000D03*
X115443000Y-110871000D03*
X123063000Y-118491000D03*
X115443000Y-113411000D03*
X123063000Y-115951000D03*
X115443000Y-115951000D03*
X123063000Y-113411000D03*
X115443000Y-118491000D03*
X123063000Y-110871000D03*
X115443000Y-121031000D03*
X123063000Y-108331000D03*
X115443000Y-123571000D03*
X123063000Y-105791000D03*
D16*
X81153000Y-53086000D03*
D20*
X88773000Y-70866000D03*
X81153000Y-55626000D03*
X88773000Y-68326000D03*
X81153000Y-58166000D03*
X88773000Y-65786000D03*
X81153000Y-60706000D03*
X88773000Y-63246000D03*
X81153000Y-63246000D03*
X88773000Y-60706000D03*
X81153000Y-65786000D03*
X88773000Y-58166000D03*
X81153000Y-68326000D03*
X88773000Y-55626000D03*
X81153000Y-70866000D03*
X88773000Y-53086000D03*
D16*
X104013000Y-105791000D03*
D20*
X111633000Y-123571000D03*
X104013000Y-108331000D03*
X111633000Y-121031000D03*
X104013000Y-110871000D03*
X111633000Y-118491000D03*
X104013000Y-113411000D03*
X111633000Y-115951000D03*
X104013000Y-115951000D03*
X111633000Y-113411000D03*
X104013000Y-118491000D03*
X111633000Y-110871000D03*
X104013000Y-121031000D03*
X111633000Y-108331000D03*
X104013000Y-123571000D03*
X111633000Y-105791000D03*
D16*
X26670000Y-55880000D03*
D20*
X44450000Y-48260000D03*
X29210000Y-55880000D03*
X41910000Y-48260000D03*
X31750000Y-55880000D03*
X39370000Y-48260000D03*
X34290000Y-55880000D03*
X36830000Y-48260000D03*
X36830000Y-55880000D03*
X34290000Y-48260000D03*
X39370000Y-55880000D03*
X31750000Y-48260000D03*
X41910000Y-55880000D03*
X29210000Y-48260000D03*
X44450000Y-55880000D03*
X26670000Y-48260000D03*
D16*
X26670000Y-101905758D03*
D20*
X44450000Y-94285758D03*
X29210000Y-101905758D03*
X41910000Y-94285758D03*
X31750000Y-101905758D03*
X39370000Y-94285758D03*
X34290000Y-101905758D03*
X36830000Y-94285758D03*
X36830000Y-101905758D03*
X34290000Y-94285758D03*
X39370000Y-101905758D03*
X31750000Y-94285758D03*
X41910000Y-101905758D03*
X29210000Y-94285758D03*
X44450000Y-101905758D03*
X26670000Y-94285758D03*
D16*
X69723000Y-53086000D03*
D20*
X77343000Y-70866000D03*
X69723000Y-55626000D03*
X77343000Y-68326000D03*
X69723000Y-58166000D03*
X77343000Y-65786000D03*
X69723000Y-60706000D03*
X77343000Y-63246000D03*
X69723000Y-63246000D03*
X77343000Y-60706000D03*
X69723000Y-65786000D03*
X77343000Y-58166000D03*
X69723000Y-68326000D03*
X77343000Y-55626000D03*
X69723000Y-70866000D03*
X77343000Y-53086000D03*
D16*
X92583000Y-105791000D03*
D20*
X100203000Y-123571000D03*
X92583000Y-108331000D03*
X100203000Y-121031000D03*
X92583000Y-110871000D03*
X100203000Y-118491000D03*
X92583000Y-113411000D03*
X100203000Y-115951000D03*
X92583000Y-115951000D03*
X100203000Y-113411000D03*
X92583000Y-118491000D03*
X100203000Y-110871000D03*
X92583000Y-121031000D03*
X100203000Y-108331000D03*
X92583000Y-123571000D03*
X100203000Y-105791000D03*
D16*
X26670000Y-66675000D03*
D20*
X44450000Y-59055000D03*
X29210000Y-66675000D03*
X41910000Y-59055000D03*
X31750000Y-66675000D03*
X39370000Y-59055000D03*
X34290000Y-66675000D03*
X36830000Y-59055000D03*
X36830000Y-66675000D03*
X34290000Y-59055000D03*
X39370000Y-66675000D03*
X31750000Y-59055000D03*
X41910000Y-66675000D03*
X29210000Y-59055000D03*
X44450000Y-66675000D03*
X26670000Y-59055000D03*
D16*
X26670000Y-91110758D03*
D20*
X44450000Y-83490758D03*
X29210000Y-91110758D03*
X41910000Y-83490758D03*
X31750000Y-91110758D03*
X39370000Y-83490758D03*
X34290000Y-91110758D03*
X36830000Y-83490758D03*
X36830000Y-91110758D03*
X34290000Y-83490758D03*
X39370000Y-91110758D03*
X31750000Y-83490758D03*
X41910000Y-91110758D03*
X29210000Y-83490758D03*
X44450000Y-91110758D03*
X26670000Y-83490758D03*
D16*
X69723000Y-74041000D03*
D20*
X77343000Y-91821000D03*
X69723000Y-76581000D03*
X77343000Y-89281000D03*
X69723000Y-79121000D03*
X77343000Y-86741000D03*
X69723000Y-81661000D03*
X77343000Y-84201000D03*
X69723000Y-84201000D03*
X77343000Y-81661000D03*
X69723000Y-86741000D03*
X77343000Y-79121000D03*
X69723000Y-89281000D03*
X77343000Y-76581000D03*
X69723000Y-91821000D03*
X77343000Y-74041000D03*
D16*
X81153000Y-105791000D03*
D20*
X88773000Y-123571000D03*
X81153000Y-108331000D03*
X88773000Y-121031000D03*
X81153000Y-110871000D03*
X88773000Y-118491000D03*
X81153000Y-113411000D03*
X88773000Y-115951000D03*
X81153000Y-115951000D03*
X88773000Y-113411000D03*
X81153000Y-118491000D03*
X88773000Y-110871000D03*
X81153000Y-121031000D03*
X88773000Y-108331000D03*
X81153000Y-123571000D03*
X88773000Y-105791000D03*
D16*
X81153000Y-74041000D03*
D20*
X88773000Y-91821000D03*
X81153000Y-76581000D03*
X88773000Y-89281000D03*
X81153000Y-79121000D03*
X88773000Y-86741000D03*
X81153000Y-81661000D03*
X88773000Y-84201000D03*
X81153000Y-84201000D03*
X88773000Y-81661000D03*
X81153000Y-86741000D03*
X88773000Y-79121000D03*
X81153000Y-89281000D03*
X88773000Y-76581000D03*
X81153000Y-91821000D03*
X88773000Y-74041000D03*
D16*
X69723000Y-105791000D03*
D20*
X77343000Y-123571000D03*
X69723000Y-108331000D03*
X77343000Y-121031000D03*
X69723000Y-110871000D03*
X77343000Y-118491000D03*
X69723000Y-113411000D03*
X77343000Y-115951000D03*
X69723000Y-115951000D03*
X77343000Y-113411000D03*
X69723000Y-118491000D03*
X77343000Y-110871000D03*
X69723000Y-121031000D03*
X77343000Y-108331000D03*
X69723000Y-123571000D03*
X77343000Y-105791000D03*
D16*
X115824000Y-35560000D03*
D20*
X82804000Y-43180000D03*
X113284000Y-35560000D03*
X85344000Y-43180000D03*
X110744000Y-35560000D03*
X87884000Y-43180000D03*
X108204000Y-35560000D03*
X90424000Y-43180000D03*
X105664000Y-35560000D03*
X92964000Y-43180000D03*
X103124000Y-35560000D03*
X95504000Y-43180000D03*
X100584000Y-35560000D03*
X98044000Y-43180000D03*
X98044000Y-35560000D03*
X100584000Y-43180000D03*
X95504000Y-35560000D03*
X103124000Y-43180000D03*
X92964000Y-35560000D03*
X105664000Y-43180000D03*
X90424000Y-35560000D03*
X108204000Y-43180000D03*
X87884000Y-35560000D03*
X110744000Y-43180000D03*
X85344000Y-35560000D03*
X113284000Y-43180000D03*
X82804000Y-35560000D03*
X115824000Y-43180000D03*
D17*
X66548000Y-39116000D03*
D21*
X66548000Y-41656000D03*
X66548000Y-44196000D03*
D22*
X120904000Y-43180000D03*
D23*
X120904000Y-40640000D03*
D22*
X118364000Y-40640000D03*
D23*
X118364000Y-43180000D03*
D22*
X119888000Y-26924000D03*
D23*
X117348000Y-26924000D03*
D22*
X112776000Y-26924000D03*
D23*
X115316000Y-26924000D03*
D22*
X107950000Y-26924000D03*
D23*
X110490000Y-26924000D03*
D22*
X118364000Y-38100000D03*
D23*
X118364000Y-35560000D03*
D22*
X87884000Y-32512000D03*
D23*
X87884000Y-29972000D03*
D24*
X55753000Y-82804000D03*
D25*
X123190000Y-27940000D03*
X123190000Y-30480000D03*
X123190000Y-33020000D03*
X123190000Y-35560000D03*
X123190000Y-38100000D03*
X123190000Y-40640000D03*
X123190000Y-43180000D03*
X123190000Y-45720000D03*
D12*
X58039000Y-93091000D03*
D13*
X60579000Y-93091000D03*
X58039000Y-95631000D03*
X60579000Y-95631000D03*
X58039000Y-98171000D03*
X60579000Y-98171000D03*
X58039000Y-100711000D03*
X60579000Y-100711000D03*
X58039000Y-103251000D03*
X60579000Y-103251000D03*
X58039000Y-105791000D03*
X60579000Y-105791000D03*
X58039000Y-108331000D03*
X60579000Y-108331000D03*
X58039000Y-110871000D03*
X60579000Y-110871000D03*
X58039000Y-113411000D03*
X60579000Y-113411000D03*
X58039000Y-115951000D03*
X60579000Y-115951000D03*
X58039000Y-118491000D03*
X60579000Y-118491000D03*
X58039000Y-121031000D03*
X60579000Y-121031000D03*
M02*
