M48
;DRILL file {KiCad 4.0.7-e2-6376~58~ubuntu16.04.1} date Wed Feb 21 03:09:54 2018
;FORMAT={3:3/ absolute / metric / suppress leading zeros}
FMAT,2
METRIC,TZ
T1C0.400
T2C0.600
T3C0.700
T4C0.762
T5C0.800
T6C0.900
T7C1.000
T8C1.100
T9C5.300
%
G90
G05
M71
T1
X26670Y-110236
X26924Y-30734
X27940Y-31115
X27940Y-77724
X27940Y-116586
X28448Y-81534
X29210Y-28448
X29972Y-111506
X30480Y-49530
X30480Y-81026
X30480Y-114046
X31242Y-110236
X31750Y-41148
X31750Y-52324
X31750Y-75692
X31750Y-98552
X31750Y-118364
X32004Y-53086
X32004Y-64008
X32004Y-88392
X32258Y-107950
X32258Y-110490
X32512Y-63246
X33020Y-60960
X33020Y-106172
X33528Y-121412
X34290Y-76327
X34290Y-97409
X34417Y-69723
X35052Y-100330
X35560Y-38862
X35560Y-61722
X35560Y-109728
X36322Y-95758
X36830Y-77089
X36830Y-86868
X38100Y-71374
X38100Y-95504
X39370Y-51562
X39370Y-74676
X39624Y-42926
X39624Y-53848
X39624Y-64770
X39624Y-89154
X39624Y-99822
X39624Y-117856
X39878Y-85598
X39878Y-107188
X40640Y-33020
X40640Y-89916
X40640Y-121412
X41783Y-77851
X41910Y-28702
X43180Y-69723
X43180Y-87630
X43180Y-96266
X45466Y-29718
X45466Y-73914
X45720Y-43688
X45720Y-64770
X45720Y-69850
X45720Y-122174
X45974Y-32004
X46482Y-34290
X46482Y-37338
X46482Y-39370
X46482Y-50800
X46482Y-59690
X46482Y-64008
X46482Y-68580
X46482Y-89916
X46482Y-95250
X46736Y-88900
X47244Y-36830
X47244Y-54610
X47244Y-63246
X47244Y-70866
X47244Y-94488
X47752Y-85344
X48006Y-41910
X48006Y-65278
X48006Y-91694
X48768Y-44450
X48768Y-58928
X48768Y-79375
X48768Y-82804
X48768Y-106934
X49022Y-26289
X49022Y-31115
X49022Y-99060
X49149Y-86868
X49530Y-42926
X49530Y-50800
X49530Y-53848
X49530Y-64516
X49784Y-27178
X49784Y-28702
X50038Y-113284
X50292Y-41148
X50292Y-50292
X50292Y-53340
X50292Y-63500
X50546Y-87122
X51054Y-52324
X51054Y-66040
X51816Y-51562
X51816Y-67310
X52578Y-50800
X54356Y-49530
X55118Y-35560
X55118Y-51308
X55880Y-28194
X56642Y-33020
X57277Y-96901
X57658Y-44450
X58166Y-35560
X58166Y-40894
X58166Y-45720
X59055Y-26035
X59055Y-75819
X59690Y-76454
X60071Y-48260
X60071Y-90297
X60706Y-36322
X61087Y-48260
X61722Y-49149
X62611Y-77089
X63246Y-40386
X63246Y-45720
X63246Y-75184
X63246Y-94107
X63373Y-36830
X64008Y-95504
X64262Y-34798
X64262Y-46228
X64643Y-96901
X65151Y-42926
X65151Y-48260
X65532Y-98044
X65786Y-26797
X65786Y-29718
X65786Y-47625
X66167Y-99441
X66929Y-100711
X67564Y-49784
X67564Y-102108
X68326Y-51054
X68326Y-103378
X70358Y-35179
X70612Y-29972
X70612Y-33020
X70612Y-93345
X70866Y-51562
X70993Y-117221
X71247Y-93853
X71374Y-34544
X71501Y-79121
X71628Y-51181
X71628Y-58166
X71628Y-104140
X71628Y-110236
X71882Y-113538
X72390Y-103759
X72390Y-110617
X72644Y-45339
X73406Y-46228
X75184Y-45339
X75184Y-54610
X75184Y-73914
X75946Y-53340
X76073Y-75311
X76073Y-119761
X76327Y-67056
X77597Y-34671
X77597Y-44450
X79756Y-41783
X80010Y-26543
X80010Y-28543
X80010Y-30543
X80010Y-45212
X81010Y-27543
X81010Y-29543
X81788Y-93853
X82010Y-26543
X82010Y-28543
X82010Y-30543
X82042Y-50165
X82423Y-77851
X82423Y-112141
X82931Y-50038
X82931Y-58166
X82931Y-103759
X83010Y-27543
X83010Y-29543
X83058Y-79121
X83058Y-93853
X83058Y-109855
X83820Y-103124
X83820Y-110617
X84010Y-26543
X84010Y-28543
X84010Y-30543
X84963Y-37846
X85090Y-46228
X85217Y-41148
X86487Y-32639
X86614Y-45212
X86614Y-54356
X86614Y-74676
X87376Y-53340
X87503Y-80391
X87503Y-114681
X87757Y-61976
X87757Y-64516
X88138Y-41148
X89916Y-37338
X91694Y-51181
X93091Y-102997
X93472Y-49911
X93853Y-82931
X94107Y-93853
X94234Y-28194
X94361Y-58166
X94488Y-49911
X94488Y-79121
X94488Y-102997
X94488Y-110490
X94615Y-48895
X95250Y-93853
X95377Y-79121
X95504Y-32512
X95504Y-45212
X96012Y-31242
X96266Y-46233
X96266Y-70866
X98044Y-45212
X98044Y-54356
X98044Y-74676
X98806Y-53340
X98933Y-85471
X98933Y-109601
X99187Y-56896
X99187Y-59436
X99314Y-37338
X103124Y-38608
X104394Y-102997
X104775Y-48260
X105283Y-88011
X105283Y-93853
X105410Y-97917
X105410Y-99568
X105918Y-47625
X105918Y-58166
X105918Y-79121
X105918Y-102997
X105918Y-110744
X106172Y-41910
X106426Y-93853
X106807Y-79121
X106934Y-36703
X107696Y-46228
X107696Y-70866
X107696Y-91821
X108585Y-108331
X108585Y-121031
X108712Y-55626
X108712Y-68326
X108712Y-76581
X108712Y-89281
X109728Y-45847
X110236Y-74676
X110617Y-54737
X112014Y-41275
X113030Y-51054
X113284Y-39370
X114554Y-38608
X114808Y-44323
X116586Y-37084
X116713Y-122174
X116840Y-40386
X117348Y-102743
X117729Y-95377
X117983Y-50927
X118237Y-58166
X118872Y-47498
X118872Y-60706
X118872Y-81788
X118872Y-102743
X118872Y-113411
X118999Y-44323
X119507Y-63754
X119507Y-75946
X119507Y-94996
X119507Y-103632
X119507Y-115951
X119634Y-41910
X120142Y-65786
X120142Y-87122
X120396Y-39370
X120396Y-118364
X120523Y-45847
X120904Y-53594
X120904Y-69342
X120904Y-74676
X120904Y-90805
X121031Y-45212
X121158Y-105918
X121666Y-47625
X121666Y-76200
X121666Y-103251
X121793Y-51816
X121793Y-54356
X121793Y-72771
X121793Y-75311
X121793Y-104521
X121920Y-44450
X122301Y-46863
X122809Y-96393
X124333Y-56896
T2
X46736Y-101854
X46736Y-112776
X46990Y-123444
X48768Y-66802
X48768Y-73660
X55118Y-122936
X55626Y-89662
X63754Y-88138
X64262Y-74168
X73406Y-70866
X73406Y-91948
X73406Y-123698
X84836Y-123698
X85090Y-70866
X85090Y-91948
X95504Y-123698
X107696Y-123698
T3
X87884Y-29972
X87884Y-32512
X107950Y-26924
X110490Y-26924
X112776Y-26924
X115316Y-26924
X117348Y-26924
X118364Y-35560
X118364Y-38100
X118364Y-40640
X118364Y-43180
X119888Y-26924
X120904Y-40640
X120904Y-43180
T4
X123190Y-27940
X123190Y-30480
X123190Y-33020
X123190Y-35560
X123190Y-38100
X123190Y-40640
X123190Y-43180
X123190Y-45720
T5
X26670Y-26670
X26670Y-34290
X26670Y-37465
X26670Y-45085
X26670Y-48260
X26670Y-55880
X26670Y-59055
X26670Y-66675
X26670Y-72696
X26670Y-80316
X26670Y-83491
X26670Y-91111
X26670Y-94286
X26670Y-101906
X26670Y-105081
X26670Y-112701
X26670Y-115876
X26670Y-123496
X29210Y-26670
X29210Y-34290
X29210Y-37465
X29210Y-45085
X29210Y-48260
X29210Y-55880
X29210Y-59055
X29210Y-66675
X29210Y-72696
X29210Y-80316
X29210Y-83491
X29210Y-91111
X29210Y-94286
X29210Y-101906
X29210Y-105081
X29210Y-112701
X29210Y-115876
X29210Y-123496
X31750Y-26670
X31750Y-34290
X31750Y-37465
X31750Y-45085
X31750Y-48260
X31750Y-55880
X31750Y-59055
X31750Y-66675
X31750Y-72696
X31750Y-80316
X31750Y-83491
X31750Y-91111
X31750Y-94286
X31750Y-101906
X31750Y-105081
X31750Y-112701
X31750Y-115876
X31750Y-123496
X34290Y-26670
X34290Y-34290
X34290Y-37465
X34290Y-45085
X34290Y-48260
X34290Y-55880
X34290Y-59055
X34290Y-66675
X34290Y-72696
X34290Y-80316
X34290Y-83491
X34290Y-91111
X34290Y-94286
X34290Y-101906
X34290Y-105081
X34290Y-112701
X34290Y-115876
X34290Y-123496
X36830Y-26670
X36830Y-34290
X36830Y-37465
X36830Y-45085
X36830Y-48260
X36830Y-55880
X36830Y-59055
X36830Y-66675
X36830Y-72696
X36830Y-80316
X36830Y-83491
X36830Y-91111
X36830Y-94286
X36830Y-101906
X36830Y-105081
X36830Y-112701
X36830Y-115876
X36830Y-123496
X39370Y-26670
X39370Y-34290
X39370Y-37465
X39370Y-45085
X39370Y-48260
X39370Y-55880
X39370Y-59055
X39370Y-66675
X39370Y-72696
X39370Y-80316
X39370Y-83491
X39370Y-91111
X39370Y-94286
X39370Y-101906
X39370Y-105081
X39370Y-112701
X39370Y-115876
X39370Y-123496
X41910Y-26670
X41910Y-34290
X41910Y-37465
X41910Y-45085
X41910Y-48260
X41910Y-55880
X41910Y-59055
X41910Y-66675
X41910Y-72696
X41910Y-80316
X41910Y-83491
X41910Y-91111
X41910Y-94286
X41910Y-101906
X41910Y-105081
X41910Y-112701
X41910Y-115876
X41910Y-123496
X44450Y-26670
X44450Y-34290
X44450Y-37465
X44450Y-45085
X44450Y-48260
X44450Y-55880
X44450Y-59055
X44450Y-66675
X44450Y-72696
X44450Y-80316
X44450Y-83491
X44450Y-91111
X44450Y-94286
X44450Y-101906
X44450Y-105081
X44450Y-112701
X44450Y-115876
X44450Y-123496
X51816Y-29210
X51816Y-31750
X51816Y-34290
X51816Y-36830
X51816Y-39370
X51816Y-41910
X51816Y-44450
X51816Y-46990
X59436Y-29210
X59436Y-31750
X59436Y-34290
X59436Y-36830
X59436Y-39370
X59436Y-41910
X59436Y-44450
X59436Y-46990
X62484Y-37846
X62484Y-42846
X69723Y-53086
X69723Y-55626
X69723Y-58166
X69723Y-60706
X69723Y-63246
X69723Y-65786
X69723Y-68326
X69723Y-70866
X69723Y-74041
X69723Y-76581
X69723Y-79121
X69723Y-81661
X69723Y-84201
X69723Y-86741
X69723Y-89281
X69723Y-91821
X69723Y-105791
X69723Y-108331
X69723Y-110871
X69723Y-113411
X69723Y-115951
X69723Y-118491
X69723Y-121031
X69723Y-123571
X72644Y-37378
X72644Y-39878
X75010Y-43180
X76454Y-27980
X76454Y-30480
X77343Y-53086
X77343Y-55626
X77343Y-58166
X77343Y-60706
X77343Y-63246
X77343Y-65786
X77343Y-68326
X77343Y-70866
X77343Y-74041
X77343Y-76581
X77343Y-79121
X77343Y-81661
X77343Y-84201
X77343Y-86741
X77343Y-89281
X77343Y-91821
X77343Y-105791
X77343Y-108331
X77343Y-110871
X77343Y-113411
X77343Y-115951
X77343Y-118491
X77343Y-121031
X77343Y-123571
X79248Y-34116
X79248Y-39116
X80010Y-43180
X81153Y-53086
X81153Y-55626
X81153Y-58166
X81153Y-60706
X81153Y-63246
X81153Y-65786
X81153Y-68326
X81153Y-70866
X81153Y-74041
X81153Y-76581
X81153Y-79121
X81153Y-81661
X81153Y-84201
X81153Y-86741
X81153Y-89281
X81153Y-91821
X81153Y-105791
X81153Y-108331
X81153Y-110871
X81153Y-113411
X81153Y-115951
X81153Y-118491
X81153Y-121031
X81153Y-123571
X82804Y-35560
X82804Y-43180
X85344Y-35560
X85344Y-43180
X87884Y-35560
X87884Y-43180
X87964Y-26924
X88773Y-53086
X88773Y-55626
X88773Y-58166
X88773Y-60706
X88773Y-63246
X88773Y-65786
X88773Y-68326
X88773Y-70866
X88773Y-74041
X88773Y-76581
X88773Y-79121
X88773Y-81661
X88773Y-84201
X88773Y-86741
X88773Y-89281
X88773Y-91821
X88773Y-105791
X88773Y-108331
X88773Y-110871
X88773Y-113411
X88773Y-115951
X88773Y-118491
X88773Y-121031
X88773Y-123571
X90424Y-35560
X90424Y-43180
X92583Y-53086
X92583Y-55626
X92583Y-58166
X92583Y-60706
X92583Y-63246
X92583Y-65786
X92583Y-68326
X92583Y-70866
X92583Y-74041
X92583Y-76581
X92583Y-79121
X92583Y-81661
X92583Y-84201
X92583Y-86741
X92583Y-89281
X92583Y-91821
X92583Y-105791
X92583Y-108331
X92583Y-110871
X92583Y-113411
X92583Y-115951
X92583Y-118491
X92583Y-121031
X92583Y-123571
X92964Y-26924
X92964Y-35560
X92964Y-43180
X94180Y-31242
X95504Y-35560
X95504Y-43180
X96774Y-26924
X98044Y-35560
X98044Y-43180
X99060Y-31242
X100203Y-53086
X100203Y-55626
X100203Y-58166
X100203Y-60706
X100203Y-63246
X100203Y-65786
X100203Y-68326
X100203Y-70866
X100203Y-74041
X100203Y-76581
X100203Y-79121
X100203Y-81661
X100203Y-84201
X100203Y-86741
X100203Y-89281
X100203Y-91821
X100203Y-105791
X100203Y-108331
X100203Y-110871
X100203Y-113411
X100203Y-115951
X100203Y-118491
X100203Y-121031
X100203Y-123571
X100584Y-35560
X100584Y-43180
X101774Y-26924
X103124Y-35560
X103124Y-43180
X104013Y-53086
X104013Y-55626
X104013Y-58166
X104013Y-60706
X104013Y-63246
X104013Y-65786
X104013Y-68326
X104013Y-70866
X104013Y-74041
X104013Y-76581
X104013Y-79121
X104013Y-81661
X104013Y-84201
X104013Y-86741
X104013Y-89281
X104013Y-91821
X104013Y-105791
X104013Y-108331
X104013Y-110871
X104013Y-113411
X104013Y-115951
X104013Y-118491
X104013Y-121031
X104013Y-123571
X104140Y-27004
X104140Y-32004
X105664Y-35560
X105664Y-43180
X108204Y-35560
X108204Y-43180
X110744Y-35560
X110744Y-43180
X111633Y-53086
X111633Y-55626
X111633Y-58166
X111633Y-60706
X111633Y-63246
X111633Y-65786
X111633Y-68326
X111633Y-70866
X111633Y-74041
X111633Y-76581
X111633Y-79121
X111633Y-81661
X111633Y-84201
X111633Y-86741
X111633Y-89281
X111633Y-91821
X111633Y-105791
X111633Y-108331
X111633Y-110871
X111633Y-113411
X111633Y-115951
X111633Y-118491
X111633Y-121031
X111633Y-123571
X113284Y-35560
X113284Y-43180
X115443Y-53086
X115443Y-55626
X115443Y-58166
X115443Y-60706
X115443Y-63246
X115443Y-65786
X115443Y-68326
X115443Y-70866
X115443Y-74041
X115443Y-76581
X115443Y-79121
X115443Y-81661
X115443Y-84201
X115443Y-86741
X115443Y-89281
X115443Y-91821
X115443Y-105791
X115443Y-108331
X115443Y-110871
X115443Y-113411
X115443Y-115951
X115443Y-118491
X115443Y-121031
X115443Y-123571
X115824Y-35560
X115824Y-43180
X123063Y-53086
X123063Y-55626
X123063Y-58166
X123063Y-60706
X123063Y-63246
X123063Y-65786
X123063Y-68326
X123063Y-70866
X123063Y-74041
X123063Y-76581
X123063Y-79121
X123063Y-81661
X123063Y-84201
X123063Y-86741
X123063Y-89281
X123063Y-91821
X123063Y-105791
X123063Y-108331
X123063Y-110871
X123063Y-113411
X123063Y-115951
X123063Y-118491
X123063Y-121031
X123063Y-123571
T6
X109474Y-29464
X109474Y-32004
X114046Y-29464
X114046Y-32004
X118618Y-29464
X118618Y-32004
T7
X50800Y-93218
X50800Y-95758
X50800Y-98298
X50800Y-100838
X50800Y-103378
X50800Y-105918
X50800Y-108458
X50800Y-110998
X53340Y-93218
X53340Y-95758
X53340Y-98298
X53340Y-100838
X53340Y-103378
X53340Y-105918
X53340Y-108458
X53340Y-110998
X54610Y-53340
X54610Y-55880
X54610Y-58420
X54610Y-60960
X54610Y-63500
X54610Y-66040
X54610Y-68580
X54610Y-71120
X57150Y-53340
X57150Y-55880
X57150Y-58420
X57150Y-60960
X57150Y-63500
X57150Y-66040
X57150Y-68580
X57150Y-71120
X58039Y-93091
X58039Y-95631
X58039Y-98171
X58039Y-100711
X58039Y-103251
X58039Y-105791
X58039Y-108331
X58039Y-110871
X58039Y-113411
X58039Y-115951
X58039Y-118491
X58039Y-121031
X58039Y-123571
X60579Y-93091
X60579Y-95631
X60579Y-98171
X60579Y-100711
X60579Y-103251
X60579Y-105791
X60579Y-108331
X60579Y-110871
X60579Y-113411
X60579Y-115951
X60579Y-118491
X60579Y-121031
X60579Y-123571
X66548Y-39116
X66548Y-41656
X66548Y-44196
X111760Y-47244
X111760Y-49784
X114300Y-47244
X114300Y-49784
X116840Y-47244
X116840Y-49784
T8
X112268Y-96520
X112268Y-101020
X118768Y-96520
X118768Y-101020
T9
X55753Y-82804
T7
X63372Y-29782G85X63372Y-31782
G05
X69072Y-27782G85X67072Y-27782
G05
X69072Y-33782G85X67072Y-33782
G05
T0
M30
