G04 #@! TF.FileFunction,Legend,Top*
%FSLAX46Y46*%
G04 Gerber Fmt 4.6, Leading zero omitted, Abs format (unit mm)*
G04 Created by KiCad (PCBNEW 4.0.7-e2-6376~58~ubuntu16.04.1) date Wed Feb 21 03:08:00 2018*
%MOMM*%
%LPD*%
G01*
G04 APERTURE LIST*
%ADD10C,0.100000*%
%ADD11C,0.300000*%
%ADD12C,0.120000*%
%ADD13C,0.150000*%
%ADD14C,2.400000*%
%ADD15R,2.100000X2.100000*%
%ADD16O,2.100000X2.100000*%
%ADD17C,1.900000*%
%ADD18C,2.000000*%
%ADD19R,2.000000X2.000000*%
%ADD20R,2.200000X2.200000*%
%ADD21C,2.200000*%
%ADD22R,3.900000X3.900000*%
%ADD23O,2.000000X2.000000*%
%ADD24O,2.200000X2.200000*%
%ADD25C,1.800000*%
%ADD26O,1.800000X1.800000*%
%ADD27C,5.700000*%
%ADD28C,1.924000*%
G04 APERTURE END LIST*
D10*
D11*
X46918858Y-90515286D02*
X46918858Y-91229571D01*
X46418858Y-89729571D02*
X46918858Y-90515286D01*
X47418858Y-89729571D01*
X48704572Y-91229571D02*
X47847429Y-91229571D01*
X48276001Y-91229571D02*
X48276001Y-89729571D01*
X48133144Y-89943857D01*
X47990286Y-90086714D01*
X47847429Y-90158143D01*
X49990286Y-89729571D02*
X49704572Y-89729571D01*
X49561715Y-89801000D01*
X49490286Y-89872429D01*
X49347429Y-90086714D01*
X49276000Y-90372429D01*
X49276000Y-90943857D01*
X49347429Y-91086714D01*
X49418857Y-91158143D01*
X49561715Y-91229571D01*
X49847429Y-91229571D01*
X49990286Y-91158143D01*
X50061715Y-91086714D01*
X50133143Y-90943857D01*
X50133143Y-90586714D01*
X50061715Y-90443857D01*
X49990286Y-90372429D01*
X49847429Y-90301000D01*
X49561715Y-90301000D01*
X49418857Y-90372429D01*
X49347429Y-90443857D01*
X49276000Y-90586714D01*
X50776000Y-90658143D02*
X51918857Y-90658143D01*
X54066286Y-116450857D02*
X54780571Y-116450857D01*
X53280571Y-116950857D02*
X54066286Y-116450857D01*
X53280571Y-115950857D01*
X54780571Y-115379429D02*
X54780571Y-115093714D01*
X54709143Y-114950857D01*
X54637714Y-114879429D01*
X54423429Y-114736571D01*
X54137714Y-114665143D01*
X53566286Y-114665143D01*
X53423429Y-114736571D01*
X53352000Y-114808000D01*
X53280571Y-114950857D01*
X53280571Y-115236571D01*
X53352000Y-115379429D01*
X53423429Y-115450857D01*
X53566286Y-115522286D01*
X53923429Y-115522286D01*
X54066286Y-115450857D01*
X54137714Y-115379429D01*
X54209143Y-115236571D01*
X54209143Y-114950857D01*
X54137714Y-114808000D01*
X54066286Y-114736571D01*
X53923429Y-114665143D01*
X54209143Y-114022286D02*
X54209143Y-112879429D01*
X54780571Y-113450858D02*
X53637714Y-113450858D01*
X62206430Y-120209571D02*
X63206430Y-121709571D01*
X63206430Y-120209571D02*
X62206430Y-121709571D01*
X63706429Y-120352429D02*
X63777858Y-120281000D01*
X63920715Y-120209571D01*
X64277858Y-120209571D01*
X64420715Y-120281000D01*
X64492144Y-120352429D01*
X64563572Y-120495286D01*
X64563572Y-120638143D01*
X64492144Y-120852429D01*
X63635001Y-121709571D01*
X64563572Y-121709571D01*
X65849286Y-120709571D02*
X65849286Y-121709571D01*
X65492143Y-120138143D02*
X65135000Y-121209571D01*
X66063572Y-121209571D01*
X62793715Y-92269571D02*
X63793715Y-93769571D01*
X63793715Y-92269571D02*
X62793715Y-93769571D01*
X64293714Y-92412429D02*
X64365143Y-92341000D01*
X64508000Y-92269571D01*
X64865143Y-92269571D01*
X65008000Y-92341000D01*
X65079429Y-92412429D01*
X65150857Y-92555286D01*
X65150857Y-92698143D01*
X65079429Y-92912429D01*
X64222286Y-93769571D01*
X65150857Y-93769571D01*
X59571143Y-70957286D02*
X59571143Y-71671571D01*
X59071143Y-70171571D02*
X59571143Y-70957286D01*
X60071143Y-70171571D01*
X60785429Y-70814429D02*
X60642571Y-70743000D01*
X60571143Y-70671571D01*
X60499714Y-70528714D01*
X60499714Y-70457286D01*
X60571143Y-70314429D01*
X60642571Y-70243000D01*
X60785429Y-70171571D01*
X61071143Y-70171571D01*
X61214000Y-70243000D01*
X61285429Y-70314429D01*
X61356857Y-70457286D01*
X61356857Y-70528714D01*
X61285429Y-70671571D01*
X61214000Y-70743000D01*
X61071143Y-70814429D01*
X60785429Y-70814429D01*
X60642571Y-70885857D01*
X60571143Y-70957286D01*
X60499714Y-71100143D01*
X60499714Y-71385857D01*
X60571143Y-71528714D01*
X60642571Y-71600143D01*
X60785429Y-71671571D01*
X61071143Y-71671571D01*
X61214000Y-71600143D01*
X61285429Y-71528714D01*
X61356857Y-71385857D01*
X61356857Y-71100143D01*
X61285429Y-70957286D01*
X61214000Y-70885857D01*
X61071143Y-70814429D01*
X61999714Y-71100143D02*
X63142571Y-71100143D01*
X49411143Y-71084286D02*
X49411143Y-71798571D01*
X48911143Y-70298571D02*
X49411143Y-71084286D01*
X49911143Y-70298571D01*
X50625429Y-70941429D02*
X50482571Y-70870000D01*
X50411143Y-70798571D01*
X50339714Y-70655714D01*
X50339714Y-70584286D01*
X50411143Y-70441429D01*
X50482571Y-70370000D01*
X50625429Y-70298571D01*
X50911143Y-70298571D01*
X51054000Y-70370000D01*
X51125429Y-70441429D01*
X51196857Y-70584286D01*
X51196857Y-70655714D01*
X51125429Y-70798571D01*
X51054000Y-70870000D01*
X50911143Y-70941429D01*
X50625429Y-70941429D01*
X50482571Y-71012857D01*
X50411143Y-71084286D01*
X50339714Y-71227143D01*
X50339714Y-71512857D01*
X50411143Y-71655714D01*
X50482571Y-71727143D01*
X50625429Y-71798571D01*
X50911143Y-71798571D01*
X51054000Y-71727143D01*
X51125429Y-71655714D01*
X51196857Y-71512857D01*
X51196857Y-71227143D01*
X51125429Y-71084286D01*
X51054000Y-71012857D01*
X50911143Y-70941429D01*
X51839714Y-71227143D02*
X52982571Y-71227143D01*
X52411142Y-71798571D02*
X52411142Y-70655714D01*
X59698143Y-53177286D02*
X59698143Y-53891571D01*
X59198143Y-52391571D02*
X59698143Y-53177286D01*
X60198143Y-52391571D01*
X61483857Y-53891571D02*
X60626714Y-53891571D01*
X61055286Y-53891571D02*
X61055286Y-52391571D01*
X60912429Y-52605857D01*
X60769571Y-52748714D01*
X60626714Y-52820143D01*
X62126714Y-53320143D02*
X63269571Y-53320143D01*
X49284143Y-53177286D02*
X49284143Y-53891571D01*
X48784143Y-52391571D02*
X49284143Y-53177286D01*
X49784143Y-52391571D01*
X51069857Y-53891571D02*
X50212714Y-53891571D01*
X50641286Y-53891571D02*
X50641286Y-52391571D01*
X50498429Y-52605857D01*
X50355571Y-52748714D01*
X50212714Y-52820143D01*
X51712714Y-53320143D02*
X52855571Y-53320143D01*
X52284142Y-53891571D02*
X52284142Y-52748714D01*
D12*
X113268000Y-102020000D02*
X117768000Y-102020000D01*
X112018000Y-98020000D02*
X112018000Y-99520000D01*
X117768000Y-95520000D02*
X113268000Y-95520000D01*
X119018000Y-99520000D02*
X119018000Y-98020000D01*
X54670000Y-91888000D02*
X49470000Y-91888000D01*
X54670000Y-109728000D02*
X54670000Y-91888000D01*
X49470000Y-112328000D02*
X49470000Y-91888000D01*
X54670000Y-109728000D02*
X52070000Y-109728000D01*
X52070000Y-109728000D02*
X52070000Y-112328000D01*
X52070000Y-112328000D02*
X49470000Y-112328000D01*
X54670000Y-110998000D02*
X54670000Y-112328000D01*
X54670000Y-112328000D02*
X53340000Y-112328000D01*
X56709000Y-124901000D02*
X61909000Y-124901000D01*
X56709000Y-94361000D02*
X56709000Y-124901000D01*
X61909000Y-91761000D02*
X61909000Y-124901000D01*
X56709000Y-94361000D02*
X59309000Y-94361000D01*
X59309000Y-94361000D02*
X59309000Y-91761000D01*
X59309000Y-91761000D02*
X61909000Y-91761000D01*
X56709000Y-93091000D02*
X56709000Y-91761000D01*
X56709000Y-91761000D02*
X58039000Y-91761000D01*
X99820000Y-33767000D02*
X93420000Y-33767000D01*
X99820000Y-28717000D02*
X93420000Y-28717000D01*
X99820000Y-28717000D02*
G75*
G02X99820000Y-33767000I0J-2525000D01*
G01*
X93420000Y-28717000D02*
G75*
G03X93420000Y-33767000I0J-2525000D01*
G01*
X77938000Y-39026000D02*
X77938000Y-34206000D01*
X80558000Y-39026000D02*
X80558000Y-34206000D01*
X77938000Y-39026000D02*
X78252000Y-39026000D01*
X80244000Y-39026000D02*
X80558000Y-39026000D01*
X77938000Y-34206000D02*
X78252000Y-34206000D01*
X80244000Y-34206000D02*
X80558000Y-34206000D01*
X118170000Y-51114000D02*
X118170000Y-45914000D01*
X113030000Y-51114000D02*
X118170000Y-51114000D01*
X110430000Y-45914000D02*
X118170000Y-45914000D01*
X113030000Y-51114000D02*
X113030000Y-48514000D01*
X113030000Y-48514000D02*
X110430000Y-48514000D01*
X110430000Y-48514000D02*
X110430000Y-45914000D01*
X111760000Y-51114000D02*
X110430000Y-51114000D01*
X110430000Y-51114000D02*
X110430000Y-49784000D01*
X92874000Y-28234000D02*
X88054000Y-28234000D01*
X92874000Y-25614000D02*
X88054000Y-25614000D01*
X92874000Y-28234000D02*
X92874000Y-27920000D01*
X92874000Y-25928000D02*
X92874000Y-25614000D01*
X88054000Y-28234000D02*
X88054000Y-27920000D01*
X88054000Y-25928000D02*
X88054000Y-25614000D01*
X96864000Y-25614000D02*
X101684000Y-25614000D01*
X96864000Y-28234000D02*
X101684000Y-28234000D01*
X96864000Y-25614000D02*
X96864000Y-25928000D01*
X96864000Y-27920000D02*
X96864000Y-28234000D01*
X101684000Y-25614000D02*
X101684000Y-25928000D01*
X101684000Y-27920000D02*
X101684000Y-28234000D01*
X79920000Y-44490000D02*
X75100000Y-44490000D01*
X79920000Y-41870000D02*
X75100000Y-41870000D01*
X79920000Y-44490000D02*
X79920000Y-44176000D01*
X79920000Y-42184000D02*
X79920000Y-41870000D01*
X75100000Y-44490000D02*
X75100000Y-44176000D01*
X75100000Y-42184000D02*
X75100000Y-41870000D01*
X102830000Y-31914000D02*
X102830000Y-27094000D01*
X105450000Y-31914000D02*
X105450000Y-27094000D01*
X102830000Y-31914000D02*
X103144000Y-31914000D01*
X105136000Y-31914000D02*
X105450000Y-31914000D01*
X102830000Y-27094000D02*
X103144000Y-27094000D01*
X105136000Y-27094000D02*
X105450000Y-27094000D01*
X75274864Y-26212180D02*
G75*
G03X75274000Y-32247482I1179136J-3017820D01*
G01*
X77633136Y-26212180D02*
G75*
G02X77634000Y-32247482I-1179136J-3017820D01*
G01*
X77633136Y-26212180D02*
G75*
G03X75274000Y-26212518I-1179136J-3017820D01*
G01*
X73254000Y-29230000D02*
X79654000Y-29230000D01*
X73254000Y-29190000D02*
X79654000Y-29190000D01*
X73254000Y-29150000D02*
X79654000Y-29150000D01*
X73256000Y-29110000D02*
X79652000Y-29110000D01*
X73257000Y-29070000D02*
X79651000Y-29070000D01*
X73260000Y-29030000D02*
X79648000Y-29030000D01*
X73262000Y-28990000D02*
X79646000Y-28990000D01*
X73266000Y-28950000D02*
X75474000Y-28950000D01*
X77434000Y-28950000D02*
X79642000Y-28950000D01*
X73269000Y-28910000D02*
X75474000Y-28910000D01*
X77434000Y-28910000D02*
X79639000Y-28910000D01*
X73274000Y-28870000D02*
X75474000Y-28870000D01*
X77434000Y-28870000D02*
X79634000Y-28870000D01*
X73278000Y-28830000D02*
X75474000Y-28830000D01*
X77434000Y-28830000D02*
X79630000Y-28830000D01*
X73284000Y-28790000D02*
X75474000Y-28790000D01*
X77434000Y-28790000D02*
X79624000Y-28790000D01*
X73289000Y-28750000D02*
X75474000Y-28750000D01*
X77434000Y-28750000D02*
X79619000Y-28750000D01*
X73296000Y-28710000D02*
X75474000Y-28710000D01*
X77434000Y-28710000D02*
X79612000Y-28710000D01*
X73302000Y-28670000D02*
X75474000Y-28670000D01*
X77434000Y-28670000D02*
X79606000Y-28670000D01*
X73310000Y-28630000D02*
X75474000Y-28630000D01*
X77434000Y-28630000D02*
X79598000Y-28630000D01*
X73317000Y-28590000D02*
X75474000Y-28590000D01*
X77434000Y-28590000D02*
X79591000Y-28590000D01*
X73326000Y-28550000D02*
X75474000Y-28550000D01*
X77434000Y-28550000D02*
X79582000Y-28550000D01*
X73335000Y-28509000D02*
X75474000Y-28509000D01*
X77434000Y-28509000D02*
X79573000Y-28509000D01*
X73344000Y-28469000D02*
X75474000Y-28469000D01*
X77434000Y-28469000D02*
X79564000Y-28469000D01*
X73354000Y-28429000D02*
X75474000Y-28429000D01*
X77434000Y-28429000D02*
X79554000Y-28429000D01*
X73364000Y-28389000D02*
X75474000Y-28389000D01*
X77434000Y-28389000D02*
X79544000Y-28389000D01*
X73375000Y-28349000D02*
X75474000Y-28349000D01*
X77434000Y-28349000D02*
X79533000Y-28349000D01*
X73387000Y-28309000D02*
X75474000Y-28309000D01*
X77434000Y-28309000D02*
X79521000Y-28309000D01*
X73399000Y-28269000D02*
X75474000Y-28269000D01*
X77434000Y-28269000D02*
X79509000Y-28269000D01*
X73412000Y-28229000D02*
X75474000Y-28229000D01*
X77434000Y-28229000D02*
X79496000Y-28229000D01*
X73425000Y-28189000D02*
X75474000Y-28189000D01*
X77434000Y-28189000D02*
X79483000Y-28189000D01*
X73439000Y-28149000D02*
X75474000Y-28149000D01*
X77434000Y-28149000D02*
X79469000Y-28149000D01*
X73453000Y-28109000D02*
X75474000Y-28109000D01*
X77434000Y-28109000D02*
X79455000Y-28109000D01*
X73468000Y-28069000D02*
X75474000Y-28069000D01*
X77434000Y-28069000D02*
X79440000Y-28069000D01*
X73484000Y-28029000D02*
X75474000Y-28029000D01*
X77434000Y-28029000D02*
X79424000Y-28029000D01*
X73500000Y-27989000D02*
X75474000Y-27989000D01*
X77434000Y-27989000D02*
X79408000Y-27989000D01*
X73517000Y-27949000D02*
X75474000Y-27949000D01*
X77434000Y-27949000D02*
X79391000Y-27949000D01*
X73535000Y-27909000D02*
X75474000Y-27909000D01*
X77434000Y-27909000D02*
X79373000Y-27909000D01*
X73553000Y-27869000D02*
X75474000Y-27869000D01*
X77434000Y-27869000D02*
X79355000Y-27869000D01*
X73572000Y-27829000D02*
X75474000Y-27829000D01*
X77434000Y-27829000D02*
X79336000Y-27829000D01*
X73591000Y-27789000D02*
X75474000Y-27789000D01*
X77434000Y-27789000D02*
X79317000Y-27789000D01*
X73611000Y-27749000D02*
X75474000Y-27749000D01*
X77434000Y-27749000D02*
X79297000Y-27749000D01*
X73632000Y-27709000D02*
X75474000Y-27709000D01*
X77434000Y-27709000D02*
X79276000Y-27709000D01*
X73654000Y-27669000D02*
X75474000Y-27669000D01*
X77434000Y-27669000D02*
X79254000Y-27669000D01*
X73676000Y-27629000D02*
X75474000Y-27629000D01*
X77434000Y-27629000D02*
X79232000Y-27629000D01*
X73699000Y-27589000D02*
X75474000Y-27589000D01*
X77434000Y-27589000D02*
X79209000Y-27589000D01*
X73723000Y-27549000D02*
X75474000Y-27549000D01*
X77434000Y-27549000D02*
X79185000Y-27549000D01*
X73748000Y-27509000D02*
X75474000Y-27509000D01*
X77434000Y-27509000D02*
X79160000Y-27509000D01*
X73773000Y-27469000D02*
X75474000Y-27469000D01*
X77434000Y-27469000D02*
X79135000Y-27469000D01*
X73800000Y-27429000D02*
X75474000Y-27429000D01*
X77434000Y-27429000D02*
X79108000Y-27429000D01*
X73827000Y-27389000D02*
X75474000Y-27389000D01*
X77434000Y-27389000D02*
X79081000Y-27389000D01*
X73855000Y-27349000D02*
X75474000Y-27349000D01*
X77434000Y-27349000D02*
X79053000Y-27349000D01*
X73884000Y-27309000D02*
X75474000Y-27309000D01*
X77434000Y-27309000D02*
X79024000Y-27309000D01*
X73914000Y-27269000D02*
X75474000Y-27269000D01*
X77434000Y-27269000D02*
X78994000Y-27269000D01*
X73944000Y-27229000D02*
X75474000Y-27229000D01*
X77434000Y-27229000D02*
X78964000Y-27229000D01*
X73976000Y-27189000D02*
X75474000Y-27189000D01*
X77434000Y-27189000D02*
X78932000Y-27189000D01*
X74009000Y-27149000D02*
X75474000Y-27149000D01*
X77434000Y-27149000D02*
X78899000Y-27149000D01*
X74043000Y-27109000D02*
X75474000Y-27109000D01*
X77434000Y-27109000D02*
X78865000Y-27109000D01*
X74079000Y-27069000D02*
X75474000Y-27069000D01*
X77434000Y-27069000D02*
X78829000Y-27069000D01*
X74115000Y-27029000D02*
X75474000Y-27029000D01*
X77434000Y-27029000D02*
X78793000Y-27029000D01*
X74153000Y-26989000D02*
X78755000Y-26989000D01*
X74192000Y-26949000D02*
X78716000Y-26949000D01*
X74232000Y-26909000D02*
X78676000Y-26909000D01*
X74274000Y-26869000D02*
X78634000Y-26869000D01*
X74317000Y-26829000D02*
X78591000Y-26829000D01*
X74362000Y-26789000D02*
X78546000Y-26789000D01*
X74409000Y-26749000D02*
X78499000Y-26749000D01*
X74457000Y-26709000D02*
X78451000Y-26709000D01*
X74508000Y-26669000D02*
X78400000Y-26669000D01*
X74560000Y-26629000D02*
X78348000Y-26629000D01*
X74615000Y-26589000D02*
X78293000Y-26589000D01*
X74673000Y-26549000D02*
X78235000Y-26549000D01*
X74733000Y-26509000D02*
X78175000Y-26509000D01*
X74796000Y-26469000D02*
X78112000Y-26469000D01*
X74863000Y-26429000D02*
X78045000Y-26429000D01*
X74934000Y-26389000D02*
X77974000Y-26389000D01*
X75009000Y-26349000D02*
X77899000Y-26349000D01*
X75090000Y-26309000D02*
X77818000Y-26309000D01*
X75176000Y-26269000D02*
X77732000Y-26269000D01*
X75270000Y-26229000D02*
X77638000Y-26229000D01*
X75373000Y-26189000D02*
X77535000Y-26189000D01*
X75488000Y-26149000D02*
X77420000Y-26149000D01*
X75620000Y-26109000D02*
X77288000Y-26109000D01*
X75778000Y-26069000D02*
X77130000Y-26069000D01*
X75986000Y-26029000D02*
X76922000Y-26029000D01*
X76454000Y-32680000D02*
X76454000Y-31480000D01*
X75804000Y-32080000D02*
X77104000Y-32080000D01*
X115124608Y-32406335D02*
G75*
G03X115281516Y-29174000I-1078608J1672335D01*
G01*
X112967392Y-32406335D02*
G75*
G02X112810484Y-29174000I1078608J1672335D01*
G01*
X115125837Y-31775130D02*
G75*
G03X115126000Y-29693039I-1079837J1041130D01*
G01*
X112966163Y-31775130D02*
G75*
G02X112966000Y-29693039I1079837J1041130D01*
G01*
X115282000Y-29174000D02*
X115126000Y-29174000D01*
X112966000Y-29174000D02*
X112810000Y-29174000D01*
X110552608Y-32406335D02*
G75*
G03X110709516Y-29174000I-1078608J1672335D01*
G01*
X108395392Y-32406335D02*
G75*
G02X108238484Y-29174000I1078608J1672335D01*
G01*
X110553837Y-31775130D02*
G75*
G03X110554000Y-29693039I-1079837J1041130D01*
G01*
X108394163Y-31775130D02*
G75*
G02X108394000Y-29693039I1079837J1041130D01*
G01*
X110710000Y-29174000D02*
X110554000Y-29174000D01*
X108394000Y-29174000D02*
X108238000Y-29174000D01*
X119696608Y-32406335D02*
G75*
G03X119853516Y-29174000I-1078608J1672335D01*
G01*
X117539392Y-32406335D02*
G75*
G02X117382484Y-29174000I1078608J1672335D01*
G01*
X119697837Y-31775130D02*
G75*
G03X119698000Y-29693039I-1079837J1041130D01*
G01*
X117538163Y-31775130D02*
G75*
G02X117538000Y-29693039I1079837J1041130D01*
G01*
X119854000Y-29174000D02*
X119698000Y-29174000D01*
X117538000Y-29174000D02*
X117382000Y-29174000D01*
X53280000Y-72450000D02*
X58480000Y-72450000D01*
X53280000Y-54610000D02*
X53280000Y-72450000D01*
X58480000Y-52010000D02*
X58480000Y-72450000D01*
X53280000Y-54610000D02*
X55880000Y-54610000D01*
X55880000Y-54610000D02*
X55880000Y-52010000D01*
X55880000Y-52010000D02*
X58480000Y-52010000D01*
X53280000Y-53340000D02*
X53280000Y-52010000D01*
X53280000Y-52010000D02*
X54610000Y-52010000D01*
X63472000Y-28782000D02*
X63472000Y-19982000D01*
X63472000Y-19982000D02*
X72672000Y-19982000D01*
X66172000Y-34682000D02*
X63472000Y-34682000D01*
X63472000Y-34682000D02*
X63472000Y-32782000D01*
X72672000Y-19982000D02*
X72672000Y-34682000D01*
X72672000Y-34682000D02*
X70072000Y-34682000D01*
X71464864Y-35610180D02*
G75*
G03X71464000Y-41645482I1179136J-3017820D01*
G01*
X73823136Y-35610180D02*
G75*
G02X73824000Y-41645482I-1179136J-3017820D01*
G01*
X73823136Y-35610180D02*
G75*
G03X71464000Y-35610518I-1179136J-3017820D01*
G01*
X69444000Y-38628000D02*
X75844000Y-38628000D01*
X69444000Y-38588000D02*
X75844000Y-38588000D01*
X69444000Y-38548000D02*
X75844000Y-38548000D01*
X69446000Y-38508000D02*
X75842000Y-38508000D01*
X69447000Y-38468000D02*
X75841000Y-38468000D01*
X69450000Y-38428000D02*
X75838000Y-38428000D01*
X69452000Y-38388000D02*
X75836000Y-38388000D01*
X69456000Y-38348000D02*
X71664000Y-38348000D01*
X73624000Y-38348000D02*
X75832000Y-38348000D01*
X69459000Y-38308000D02*
X71664000Y-38308000D01*
X73624000Y-38308000D02*
X75829000Y-38308000D01*
X69464000Y-38268000D02*
X71664000Y-38268000D01*
X73624000Y-38268000D02*
X75824000Y-38268000D01*
X69468000Y-38228000D02*
X71664000Y-38228000D01*
X73624000Y-38228000D02*
X75820000Y-38228000D01*
X69474000Y-38188000D02*
X71664000Y-38188000D01*
X73624000Y-38188000D02*
X75814000Y-38188000D01*
X69479000Y-38148000D02*
X71664000Y-38148000D01*
X73624000Y-38148000D02*
X75809000Y-38148000D01*
X69486000Y-38108000D02*
X71664000Y-38108000D01*
X73624000Y-38108000D02*
X75802000Y-38108000D01*
X69492000Y-38068000D02*
X71664000Y-38068000D01*
X73624000Y-38068000D02*
X75796000Y-38068000D01*
X69500000Y-38028000D02*
X71664000Y-38028000D01*
X73624000Y-38028000D02*
X75788000Y-38028000D01*
X69507000Y-37988000D02*
X71664000Y-37988000D01*
X73624000Y-37988000D02*
X75781000Y-37988000D01*
X69516000Y-37948000D02*
X71664000Y-37948000D01*
X73624000Y-37948000D02*
X75772000Y-37948000D01*
X69525000Y-37907000D02*
X71664000Y-37907000D01*
X73624000Y-37907000D02*
X75763000Y-37907000D01*
X69534000Y-37867000D02*
X71664000Y-37867000D01*
X73624000Y-37867000D02*
X75754000Y-37867000D01*
X69544000Y-37827000D02*
X71664000Y-37827000D01*
X73624000Y-37827000D02*
X75744000Y-37827000D01*
X69554000Y-37787000D02*
X71664000Y-37787000D01*
X73624000Y-37787000D02*
X75734000Y-37787000D01*
X69565000Y-37747000D02*
X71664000Y-37747000D01*
X73624000Y-37747000D02*
X75723000Y-37747000D01*
X69577000Y-37707000D02*
X71664000Y-37707000D01*
X73624000Y-37707000D02*
X75711000Y-37707000D01*
X69589000Y-37667000D02*
X71664000Y-37667000D01*
X73624000Y-37667000D02*
X75699000Y-37667000D01*
X69602000Y-37627000D02*
X71664000Y-37627000D01*
X73624000Y-37627000D02*
X75686000Y-37627000D01*
X69615000Y-37587000D02*
X71664000Y-37587000D01*
X73624000Y-37587000D02*
X75673000Y-37587000D01*
X69629000Y-37547000D02*
X71664000Y-37547000D01*
X73624000Y-37547000D02*
X75659000Y-37547000D01*
X69643000Y-37507000D02*
X71664000Y-37507000D01*
X73624000Y-37507000D02*
X75645000Y-37507000D01*
X69658000Y-37467000D02*
X71664000Y-37467000D01*
X73624000Y-37467000D02*
X75630000Y-37467000D01*
X69674000Y-37427000D02*
X71664000Y-37427000D01*
X73624000Y-37427000D02*
X75614000Y-37427000D01*
X69690000Y-37387000D02*
X71664000Y-37387000D01*
X73624000Y-37387000D02*
X75598000Y-37387000D01*
X69707000Y-37347000D02*
X71664000Y-37347000D01*
X73624000Y-37347000D02*
X75581000Y-37347000D01*
X69725000Y-37307000D02*
X71664000Y-37307000D01*
X73624000Y-37307000D02*
X75563000Y-37307000D01*
X69743000Y-37267000D02*
X71664000Y-37267000D01*
X73624000Y-37267000D02*
X75545000Y-37267000D01*
X69762000Y-37227000D02*
X71664000Y-37227000D01*
X73624000Y-37227000D02*
X75526000Y-37227000D01*
X69781000Y-37187000D02*
X71664000Y-37187000D01*
X73624000Y-37187000D02*
X75507000Y-37187000D01*
X69801000Y-37147000D02*
X71664000Y-37147000D01*
X73624000Y-37147000D02*
X75487000Y-37147000D01*
X69822000Y-37107000D02*
X71664000Y-37107000D01*
X73624000Y-37107000D02*
X75466000Y-37107000D01*
X69844000Y-37067000D02*
X71664000Y-37067000D01*
X73624000Y-37067000D02*
X75444000Y-37067000D01*
X69866000Y-37027000D02*
X71664000Y-37027000D01*
X73624000Y-37027000D02*
X75422000Y-37027000D01*
X69889000Y-36987000D02*
X71664000Y-36987000D01*
X73624000Y-36987000D02*
X75399000Y-36987000D01*
X69913000Y-36947000D02*
X71664000Y-36947000D01*
X73624000Y-36947000D02*
X75375000Y-36947000D01*
X69938000Y-36907000D02*
X71664000Y-36907000D01*
X73624000Y-36907000D02*
X75350000Y-36907000D01*
X69963000Y-36867000D02*
X71664000Y-36867000D01*
X73624000Y-36867000D02*
X75325000Y-36867000D01*
X69990000Y-36827000D02*
X71664000Y-36827000D01*
X73624000Y-36827000D02*
X75298000Y-36827000D01*
X70017000Y-36787000D02*
X71664000Y-36787000D01*
X73624000Y-36787000D02*
X75271000Y-36787000D01*
X70045000Y-36747000D02*
X71664000Y-36747000D01*
X73624000Y-36747000D02*
X75243000Y-36747000D01*
X70074000Y-36707000D02*
X71664000Y-36707000D01*
X73624000Y-36707000D02*
X75214000Y-36707000D01*
X70104000Y-36667000D02*
X71664000Y-36667000D01*
X73624000Y-36667000D02*
X75184000Y-36667000D01*
X70134000Y-36627000D02*
X71664000Y-36627000D01*
X73624000Y-36627000D02*
X75154000Y-36627000D01*
X70166000Y-36587000D02*
X71664000Y-36587000D01*
X73624000Y-36587000D02*
X75122000Y-36587000D01*
X70199000Y-36547000D02*
X71664000Y-36547000D01*
X73624000Y-36547000D02*
X75089000Y-36547000D01*
X70233000Y-36507000D02*
X71664000Y-36507000D01*
X73624000Y-36507000D02*
X75055000Y-36507000D01*
X70269000Y-36467000D02*
X71664000Y-36467000D01*
X73624000Y-36467000D02*
X75019000Y-36467000D01*
X70305000Y-36427000D02*
X71664000Y-36427000D01*
X73624000Y-36427000D02*
X74983000Y-36427000D01*
X70343000Y-36387000D02*
X74945000Y-36387000D01*
X70382000Y-36347000D02*
X74906000Y-36347000D01*
X70422000Y-36307000D02*
X74866000Y-36307000D01*
X70464000Y-36267000D02*
X74824000Y-36267000D01*
X70507000Y-36227000D02*
X74781000Y-36227000D01*
X70552000Y-36187000D02*
X74736000Y-36187000D01*
X70599000Y-36147000D02*
X74689000Y-36147000D01*
X70647000Y-36107000D02*
X74641000Y-36107000D01*
X70698000Y-36067000D02*
X74590000Y-36067000D01*
X70750000Y-36027000D02*
X74538000Y-36027000D01*
X70805000Y-35987000D02*
X74483000Y-35987000D01*
X70863000Y-35947000D02*
X74425000Y-35947000D01*
X70923000Y-35907000D02*
X74365000Y-35907000D01*
X70986000Y-35867000D02*
X74302000Y-35867000D01*
X71053000Y-35827000D02*
X74235000Y-35827000D01*
X71124000Y-35787000D02*
X74164000Y-35787000D01*
X71199000Y-35747000D02*
X74089000Y-35747000D01*
X71280000Y-35707000D02*
X74008000Y-35707000D01*
X71366000Y-35667000D02*
X73922000Y-35667000D01*
X71460000Y-35627000D02*
X73828000Y-35627000D01*
X71563000Y-35587000D02*
X73725000Y-35587000D01*
X71678000Y-35547000D02*
X73610000Y-35547000D01*
X71810000Y-35507000D02*
X73478000Y-35507000D01*
X71968000Y-35467000D02*
X73320000Y-35467000D01*
X72176000Y-35427000D02*
X73112000Y-35427000D01*
X72644000Y-42078000D02*
X72644000Y-40878000D01*
X71994000Y-41478000D02*
X73294000Y-41478000D01*
X63794000Y-37936000D02*
X63794000Y-42756000D01*
X61174000Y-37936000D02*
X61174000Y-42756000D01*
X63794000Y-37936000D02*
X63480000Y-37936000D01*
X61488000Y-37936000D02*
X61174000Y-37936000D01*
X63794000Y-42756000D02*
X63480000Y-42756000D01*
X61488000Y-42756000D02*
X61174000Y-42756000D01*
X118253000Y-51696000D02*
X116483000Y-51696000D01*
X116483000Y-51696000D02*
X116483000Y-72256000D01*
X116483000Y-72256000D02*
X122023000Y-72256000D01*
X122023000Y-72256000D02*
X122023000Y-51696000D01*
X122023000Y-51696000D02*
X120253000Y-51696000D01*
X114053000Y-51696000D02*
X114053000Y-72256000D01*
X114053000Y-72256000D02*
X124453000Y-72256000D01*
X124453000Y-72256000D02*
X124453000Y-51696000D01*
X124453000Y-51696000D02*
X114053000Y-51696000D01*
X120253000Y-51696000D02*
G75*
G02X118253000Y-51696000I-1000000J0D01*
G01*
X54626000Y-27820000D02*
X52856000Y-27820000D01*
X52856000Y-27820000D02*
X52856000Y-48380000D01*
X52856000Y-48380000D02*
X58396000Y-48380000D01*
X58396000Y-48380000D02*
X58396000Y-27820000D01*
X58396000Y-27820000D02*
X56626000Y-27820000D01*
X50426000Y-27820000D02*
X50426000Y-48380000D01*
X50426000Y-48380000D02*
X60826000Y-48380000D01*
X60826000Y-48380000D02*
X60826000Y-27820000D01*
X60826000Y-27820000D02*
X50426000Y-27820000D01*
X56626000Y-27820000D02*
G75*
G02X54626000Y-27820000I-1000000J0D01*
G01*
X106823000Y-51696000D02*
X105053000Y-51696000D01*
X105053000Y-51696000D02*
X105053000Y-72256000D01*
X105053000Y-72256000D02*
X110593000Y-72256000D01*
X110593000Y-72256000D02*
X110593000Y-51696000D01*
X110593000Y-51696000D02*
X108823000Y-51696000D01*
X102623000Y-51696000D02*
X102623000Y-72256000D01*
X102623000Y-72256000D02*
X113023000Y-72256000D01*
X113023000Y-72256000D02*
X113023000Y-51696000D01*
X113023000Y-51696000D02*
X102623000Y-51696000D01*
X108823000Y-51696000D02*
G75*
G02X106823000Y-51696000I-1000000J0D01*
G01*
X95393000Y-72651000D02*
X93623000Y-72651000D01*
X93623000Y-72651000D02*
X93623000Y-93211000D01*
X93623000Y-93211000D02*
X99163000Y-93211000D01*
X99163000Y-93211000D02*
X99163000Y-72651000D01*
X99163000Y-72651000D02*
X97393000Y-72651000D01*
X91193000Y-72651000D02*
X91193000Y-93211000D01*
X91193000Y-93211000D02*
X101593000Y-93211000D01*
X101593000Y-93211000D02*
X101593000Y-72651000D01*
X101593000Y-72651000D02*
X91193000Y-72651000D01*
X97393000Y-72651000D02*
G75*
G02X95393000Y-72651000I-1000000J0D01*
G01*
X25280000Y-31480000D02*
X25280000Y-33250000D01*
X25280000Y-33250000D02*
X45840000Y-33250000D01*
X45840000Y-33250000D02*
X45840000Y-27710000D01*
X45840000Y-27710000D02*
X25280000Y-27710000D01*
X25280000Y-27710000D02*
X25280000Y-29480000D01*
X25280000Y-35680000D02*
X45840000Y-35680000D01*
X45840000Y-35680000D02*
X45840000Y-25280000D01*
X45840000Y-25280000D02*
X25280000Y-25280000D01*
X25280000Y-25280000D02*
X25280000Y-35680000D01*
X25280000Y-29480000D02*
G75*
G02X25280000Y-31480000I0J-1000000D01*
G01*
X25280000Y-120685758D02*
X25280000Y-122455758D01*
X25280000Y-122455758D02*
X45840000Y-122455758D01*
X45840000Y-122455758D02*
X45840000Y-116915758D01*
X45840000Y-116915758D02*
X25280000Y-116915758D01*
X25280000Y-116915758D02*
X25280000Y-118685758D01*
X25280000Y-124885758D02*
X45840000Y-124885758D01*
X45840000Y-124885758D02*
X45840000Y-114485758D01*
X45840000Y-114485758D02*
X25280000Y-114485758D01*
X25280000Y-114485758D02*
X25280000Y-124885758D01*
X25280000Y-118685758D02*
G75*
G02X25280000Y-120685758I0J-1000000D01*
G01*
X118253000Y-72651000D02*
X116483000Y-72651000D01*
X116483000Y-72651000D02*
X116483000Y-93211000D01*
X116483000Y-93211000D02*
X122023000Y-93211000D01*
X122023000Y-93211000D02*
X122023000Y-72651000D01*
X122023000Y-72651000D02*
X120253000Y-72651000D01*
X114053000Y-72651000D02*
X114053000Y-93211000D01*
X114053000Y-93211000D02*
X124453000Y-93211000D01*
X124453000Y-93211000D02*
X124453000Y-72651000D01*
X124453000Y-72651000D02*
X114053000Y-72651000D01*
X120253000Y-72651000D02*
G75*
G02X118253000Y-72651000I-1000000J0D01*
G01*
X25280000Y-77505758D02*
X25280000Y-79275758D01*
X25280000Y-79275758D02*
X45840000Y-79275758D01*
X45840000Y-79275758D02*
X45840000Y-73735758D01*
X45840000Y-73735758D02*
X25280000Y-73735758D01*
X25280000Y-73735758D02*
X25280000Y-75505758D01*
X25280000Y-81705758D02*
X45840000Y-81705758D01*
X45840000Y-81705758D02*
X45840000Y-71305758D01*
X45840000Y-71305758D02*
X25280000Y-71305758D01*
X25280000Y-71305758D02*
X25280000Y-81705758D01*
X25280000Y-75505758D02*
G75*
G02X25280000Y-77505758I0J-1000000D01*
G01*
X95393000Y-51696000D02*
X93623000Y-51696000D01*
X93623000Y-51696000D02*
X93623000Y-72256000D01*
X93623000Y-72256000D02*
X99163000Y-72256000D01*
X99163000Y-72256000D02*
X99163000Y-51696000D01*
X99163000Y-51696000D02*
X97393000Y-51696000D01*
X91193000Y-51696000D02*
X91193000Y-72256000D01*
X91193000Y-72256000D02*
X101593000Y-72256000D01*
X101593000Y-72256000D02*
X101593000Y-51696000D01*
X101593000Y-51696000D02*
X91193000Y-51696000D01*
X97393000Y-51696000D02*
G75*
G02X95393000Y-51696000I-1000000J0D01*
G01*
X106823000Y-72651000D02*
X105053000Y-72651000D01*
X105053000Y-72651000D02*
X105053000Y-93211000D01*
X105053000Y-93211000D02*
X110593000Y-93211000D01*
X110593000Y-93211000D02*
X110593000Y-72651000D01*
X110593000Y-72651000D02*
X108823000Y-72651000D01*
X102623000Y-72651000D02*
X102623000Y-93211000D01*
X102623000Y-93211000D02*
X113023000Y-93211000D01*
X113023000Y-93211000D02*
X113023000Y-72651000D01*
X113023000Y-72651000D02*
X102623000Y-72651000D01*
X108823000Y-72651000D02*
G75*
G02X106823000Y-72651000I-1000000J0D01*
G01*
X25280000Y-42275000D02*
X25280000Y-44045000D01*
X25280000Y-44045000D02*
X45840000Y-44045000D01*
X45840000Y-44045000D02*
X45840000Y-38505000D01*
X45840000Y-38505000D02*
X25280000Y-38505000D01*
X25280000Y-38505000D02*
X25280000Y-40275000D01*
X25280000Y-46475000D02*
X45840000Y-46475000D01*
X45840000Y-46475000D02*
X45840000Y-36075000D01*
X45840000Y-36075000D02*
X25280000Y-36075000D01*
X25280000Y-36075000D02*
X25280000Y-46475000D01*
X25280000Y-40275000D02*
G75*
G02X25280000Y-42275000I0J-1000000D01*
G01*
X25280000Y-109890758D02*
X25280000Y-111660758D01*
X25280000Y-111660758D02*
X45840000Y-111660758D01*
X45840000Y-111660758D02*
X45840000Y-106120758D01*
X45840000Y-106120758D02*
X25280000Y-106120758D01*
X25280000Y-106120758D02*
X25280000Y-107890758D01*
X25280000Y-114090758D02*
X45840000Y-114090758D01*
X45840000Y-114090758D02*
X45840000Y-103690758D01*
X45840000Y-103690758D02*
X25280000Y-103690758D01*
X25280000Y-103690758D02*
X25280000Y-114090758D01*
X25280000Y-107890758D02*
G75*
G02X25280000Y-109890758I0J-1000000D01*
G01*
X118253000Y-104401000D02*
X116483000Y-104401000D01*
X116483000Y-104401000D02*
X116483000Y-124961000D01*
X116483000Y-124961000D02*
X122023000Y-124961000D01*
X122023000Y-124961000D02*
X122023000Y-104401000D01*
X122023000Y-104401000D02*
X120253000Y-104401000D01*
X114053000Y-104401000D02*
X114053000Y-124961000D01*
X114053000Y-124961000D02*
X124453000Y-124961000D01*
X124453000Y-124961000D02*
X124453000Y-104401000D01*
X124453000Y-104401000D02*
X114053000Y-104401000D01*
X120253000Y-104401000D02*
G75*
G02X118253000Y-104401000I-1000000J0D01*
G01*
X83963000Y-51696000D02*
X82193000Y-51696000D01*
X82193000Y-51696000D02*
X82193000Y-72256000D01*
X82193000Y-72256000D02*
X87733000Y-72256000D01*
X87733000Y-72256000D02*
X87733000Y-51696000D01*
X87733000Y-51696000D02*
X85963000Y-51696000D01*
X79763000Y-51696000D02*
X79763000Y-72256000D01*
X79763000Y-72256000D02*
X90163000Y-72256000D01*
X90163000Y-72256000D02*
X90163000Y-51696000D01*
X90163000Y-51696000D02*
X79763000Y-51696000D01*
X85963000Y-51696000D02*
G75*
G02X83963000Y-51696000I-1000000J0D01*
G01*
X106823000Y-104401000D02*
X105053000Y-104401000D01*
X105053000Y-104401000D02*
X105053000Y-124961000D01*
X105053000Y-124961000D02*
X110593000Y-124961000D01*
X110593000Y-124961000D02*
X110593000Y-104401000D01*
X110593000Y-104401000D02*
X108823000Y-104401000D01*
X102623000Y-104401000D02*
X102623000Y-124961000D01*
X102623000Y-124961000D02*
X113023000Y-124961000D01*
X113023000Y-124961000D02*
X113023000Y-104401000D01*
X113023000Y-104401000D02*
X102623000Y-104401000D01*
X108823000Y-104401000D02*
G75*
G02X106823000Y-104401000I-1000000J0D01*
G01*
X25280000Y-53070000D02*
X25280000Y-54840000D01*
X25280000Y-54840000D02*
X45840000Y-54840000D01*
X45840000Y-54840000D02*
X45840000Y-49300000D01*
X45840000Y-49300000D02*
X25280000Y-49300000D01*
X25280000Y-49300000D02*
X25280000Y-51070000D01*
X25280000Y-57270000D02*
X45840000Y-57270000D01*
X45840000Y-57270000D02*
X45840000Y-46870000D01*
X45840000Y-46870000D02*
X25280000Y-46870000D01*
X25280000Y-46870000D02*
X25280000Y-57270000D01*
X25280000Y-51070000D02*
G75*
G02X25280000Y-53070000I0J-1000000D01*
G01*
X25280000Y-99095758D02*
X25280000Y-100865758D01*
X25280000Y-100865758D02*
X45840000Y-100865758D01*
X45840000Y-100865758D02*
X45840000Y-95325758D01*
X45840000Y-95325758D02*
X25280000Y-95325758D01*
X25280000Y-95325758D02*
X25280000Y-97095758D01*
X25280000Y-103295758D02*
X45840000Y-103295758D01*
X45840000Y-103295758D02*
X45840000Y-92895758D01*
X45840000Y-92895758D02*
X25280000Y-92895758D01*
X25280000Y-92895758D02*
X25280000Y-103295758D01*
X25280000Y-97095758D02*
G75*
G02X25280000Y-99095758I0J-1000000D01*
G01*
X72533000Y-51696000D02*
X70763000Y-51696000D01*
X70763000Y-51696000D02*
X70763000Y-72256000D01*
X70763000Y-72256000D02*
X76303000Y-72256000D01*
X76303000Y-72256000D02*
X76303000Y-51696000D01*
X76303000Y-51696000D02*
X74533000Y-51696000D01*
X68333000Y-51696000D02*
X68333000Y-72256000D01*
X68333000Y-72256000D02*
X78733000Y-72256000D01*
X78733000Y-72256000D02*
X78733000Y-51696000D01*
X78733000Y-51696000D02*
X68333000Y-51696000D01*
X74533000Y-51696000D02*
G75*
G02X72533000Y-51696000I-1000000J0D01*
G01*
X95393000Y-104401000D02*
X93623000Y-104401000D01*
X93623000Y-104401000D02*
X93623000Y-124961000D01*
X93623000Y-124961000D02*
X99163000Y-124961000D01*
X99163000Y-124961000D02*
X99163000Y-104401000D01*
X99163000Y-104401000D02*
X97393000Y-104401000D01*
X91193000Y-104401000D02*
X91193000Y-124961000D01*
X91193000Y-124961000D02*
X101593000Y-124961000D01*
X101593000Y-124961000D02*
X101593000Y-104401000D01*
X101593000Y-104401000D02*
X91193000Y-104401000D01*
X97393000Y-104401000D02*
G75*
G02X95393000Y-104401000I-1000000J0D01*
G01*
X25280000Y-63865000D02*
X25280000Y-65635000D01*
X25280000Y-65635000D02*
X45840000Y-65635000D01*
X45840000Y-65635000D02*
X45840000Y-60095000D01*
X45840000Y-60095000D02*
X25280000Y-60095000D01*
X25280000Y-60095000D02*
X25280000Y-61865000D01*
X25280000Y-68065000D02*
X45840000Y-68065000D01*
X45840000Y-68065000D02*
X45840000Y-57665000D01*
X45840000Y-57665000D02*
X25280000Y-57665000D01*
X25280000Y-57665000D02*
X25280000Y-68065000D01*
X25280000Y-61865000D02*
G75*
G02X25280000Y-63865000I0J-1000000D01*
G01*
X25280000Y-88300758D02*
X25280000Y-90070758D01*
X25280000Y-90070758D02*
X45840000Y-90070758D01*
X45840000Y-90070758D02*
X45840000Y-84530758D01*
X45840000Y-84530758D02*
X25280000Y-84530758D01*
X25280000Y-84530758D02*
X25280000Y-86300758D01*
X25280000Y-92500758D02*
X45840000Y-92500758D01*
X45840000Y-92500758D02*
X45840000Y-82100758D01*
X45840000Y-82100758D02*
X25280000Y-82100758D01*
X25280000Y-82100758D02*
X25280000Y-92500758D01*
X25280000Y-86300758D02*
G75*
G02X25280000Y-88300758I0J-1000000D01*
G01*
X72533000Y-72651000D02*
X70763000Y-72651000D01*
X70763000Y-72651000D02*
X70763000Y-93211000D01*
X70763000Y-93211000D02*
X76303000Y-93211000D01*
X76303000Y-93211000D02*
X76303000Y-72651000D01*
X76303000Y-72651000D02*
X74533000Y-72651000D01*
X68333000Y-72651000D02*
X68333000Y-93211000D01*
X68333000Y-93211000D02*
X78733000Y-93211000D01*
X78733000Y-93211000D02*
X78733000Y-72651000D01*
X78733000Y-72651000D02*
X68333000Y-72651000D01*
X74533000Y-72651000D02*
G75*
G02X72533000Y-72651000I-1000000J0D01*
G01*
X83963000Y-104401000D02*
X82193000Y-104401000D01*
X82193000Y-104401000D02*
X82193000Y-124961000D01*
X82193000Y-124961000D02*
X87733000Y-124961000D01*
X87733000Y-124961000D02*
X87733000Y-104401000D01*
X87733000Y-104401000D02*
X85963000Y-104401000D01*
X79763000Y-104401000D02*
X79763000Y-124961000D01*
X79763000Y-124961000D02*
X90163000Y-124961000D01*
X90163000Y-124961000D02*
X90163000Y-104401000D01*
X90163000Y-104401000D02*
X79763000Y-104401000D01*
X85963000Y-104401000D02*
G75*
G02X83963000Y-104401000I-1000000J0D01*
G01*
X83963000Y-72651000D02*
X82193000Y-72651000D01*
X82193000Y-72651000D02*
X82193000Y-93211000D01*
X82193000Y-93211000D02*
X87733000Y-93211000D01*
X87733000Y-93211000D02*
X87733000Y-72651000D01*
X87733000Y-72651000D02*
X85963000Y-72651000D01*
X79763000Y-72651000D02*
X79763000Y-93211000D01*
X79763000Y-93211000D02*
X90163000Y-93211000D01*
X90163000Y-93211000D02*
X90163000Y-72651000D01*
X90163000Y-72651000D02*
X79763000Y-72651000D01*
X85963000Y-72651000D02*
G75*
G02X83963000Y-72651000I-1000000J0D01*
G01*
X72533000Y-104401000D02*
X70763000Y-104401000D01*
X70763000Y-104401000D02*
X70763000Y-124961000D01*
X70763000Y-124961000D02*
X76303000Y-124961000D01*
X76303000Y-124961000D02*
X76303000Y-104401000D01*
X76303000Y-104401000D02*
X74533000Y-104401000D01*
X68333000Y-104401000D02*
X68333000Y-124961000D01*
X68333000Y-124961000D02*
X78733000Y-124961000D01*
X78733000Y-124961000D02*
X78733000Y-104401000D01*
X78733000Y-104401000D02*
X68333000Y-104401000D01*
X74533000Y-104401000D02*
G75*
G02X72533000Y-104401000I-1000000J0D01*
G01*
X117214000Y-38370000D02*
X117214000Y-36600000D01*
X117214000Y-36600000D02*
X81414000Y-36600000D01*
X81414000Y-36600000D02*
X81414000Y-42140000D01*
X81414000Y-42140000D02*
X117214000Y-42140000D01*
X117214000Y-42140000D02*
X117214000Y-40370000D01*
X117214000Y-34170000D02*
X81414000Y-34170000D01*
X81414000Y-34170000D02*
X81414000Y-44570000D01*
X81414000Y-44570000D02*
X117214000Y-44570000D01*
X117214000Y-44570000D02*
X117214000Y-34170000D01*
X117214000Y-40370000D02*
G75*
G02X117214000Y-38370000I0J1000000D01*
G01*
X69168000Y-36536000D02*
X69168000Y-46776000D01*
X64527000Y-36536000D02*
X64527000Y-46776000D01*
X69168000Y-36536000D02*
X64527000Y-36536000D01*
X69168000Y-46776000D02*
X64527000Y-46776000D01*
X67658000Y-36536000D02*
X67658000Y-46776000D01*
X69168000Y-39806000D02*
X67658000Y-39806000D01*
X69168000Y-43507000D02*
X67658000Y-43507000D01*
X121764000Y-43180000D02*
G75*
G03X121764000Y-43180000I-860000J0D01*
G01*
X120904000Y-42320000D02*
X120904000Y-41640000D01*
X119224000Y-40640000D02*
G75*
G03X119224000Y-40640000I-860000J0D01*
G01*
X118364000Y-41500000D02*
X118364000Y-42180000D01*
X120748000Y-26924000D02*
G75*
G03X120748000Y-26924000I-860000J0D01*
G01*
X119028000Y-26924000D02*
X118348000Y-26924000D01*
X113636000Y-26924000D02*
G75*
G03X113636000Y-26924000I-860000J0D01*
G01*
X113636000Y-26924000D02*
X114316000Y-26924000D01*
X108810000Y-26924000D02*
G75*
G03X108810000Y-26924000I-860000J0D01*
G01*
X108810000Y-26924000D02*
X109490000Y-26924000D01*
X119224000Y-38100000D02*
G75*
G03X119224000Y-38100000I-860000J0D01*
G01*
X118364000Y-37240000D02*
X118364000Y-36560000D01*
X88744000Y-32512000D02*
G75*
G03X88744000Y-32512000I-860000J0D01*
G01*
X87884000Y-31652000D02*
X87884000Y-30972000D01*
D13*
X121620000Y-49830000D02*
X121620000Y-24830000D01*
X121620000Y-49830000D02*
G75*
G03X125620000Y-53830000I4000000J0D01*
G01*
X114184667Y-94924762D02*
X114327524Y-94972381D01*
X114565620Y-94972381D01*
X114660858Y-94924762D01*
X114708477Y-94877143D01*
X114756096Y-94781905D01*
X114756096Y-94686667D01*
X114708477Y-94591429D01*
X114660858Y-94543810D01*
X114565620Y-94496190D01*
X114375143Y-94448571D01*
X114279905Y-94400952D01*
X114232286Y-94353333D01*
X114184667Y-94258095D01*
X114184667Y-94162857D01*
X114232286Y-94067619D01*
X114279905Y-94020000D01*
X114375143Y-93972381D01*
X114613239Y-93972381D01*
X114756096Y-94020000D01*
X115089429Y-93972381D02*
X115327524Y-94972381D01*
X115518001Y-94258095D01*
X115708477Y-94972381D01*
X115946572Y-93972381D01*
X116851334Y-94972381D02*
X116279905Y-94972381D01*
X116565619Y-94972381D02*
X116565619Y-93972381D01*
X116470381Y-94115238D01*
X116375143Y-94210476D01*
X116279905Y-94258095D01*
X51331905Y-113780381D02*
X51331905Y-112780381D01*
X51712858Y-112780381D01*
X51808096Y-112828000D01*
X51855715Y-112875619D01*
X51903334Y-112970857D01*
X51903334Y-113113714D01*
X51855715Y-113208952D01*
X51808096Y-113256571D01*
X51712858Y-113304190D01*
X51331905Y-113304190D01*
X52236667Y-112780381D02*
X52855715Y-112780381D01*
X52522381Y-113161333D01*
X52665239Y-113161333D01*
X52760477Y-113208952D01*
X52808096Y-113256571D01*
X52855715Y-113351810D01*
X52855715Y-113589905D01*
X52808096Y-113685143D01*
X52760477Y-113732762D01*
X52665239Y-113780381D01*
X52379524Y-113780381D01*
X52284286Y-113732762D01*
X52236667Y-113685143D01*
X58570905Y-91213381D02*
X58570905Y-90213381D01*
X58951858Y-90213381D01*
X59047096Y-90261000D01*
X59094715Y-90308619D01*
X59142334Y-90403857D01*
X59142334Y-90546714D01*
X59094715Y-90641952D01*
X59047096Y-90689571D01*
X58951858Y-90737190D01*
X58570905Y-90737190D01*
X60094715Y-91213381D02*
X59523286Y-91213381D01*
X59809000Y-91213381D02*
X59809000Y-90213381D01*
X59713762Y-90356238D01*
X59618524Y-90451476D01*
X59523286Y-90499095D01*
X96170809Y-31218190D02*
X96170809Y-31694381D01*
X95837476Y-30694381D02*
X96170809Y-31218190D01*
X96504143Y-30694381D01*
X97361286Y-31694381D02*
X96789857Y-31694381D01*
X97075571Y-31694381D02*
X97075571Y-30694381D01*
X96980333Y-30837238D01*
X96885095Y-30932476D01*
X96789857Y-30980095D01*
X79605143Y-36742666D02*
X79652762Y-36790285D01*
X79700381Y-36933142D01*
X79700381Y-37028380D01*
X79652762Y-37171238D01*
X79557524Y-37266476D01*
X79462286Y-37314095D01*
X79271810Y-37361714D01*
X79128952Y-37361714D01*
X78938476Y-37314095D01*
X78843238Y-37266476D01*
X78748000Y-37171238D01*
X78700381Y-37028380D01*
X78700381Y-36933142D01*
X78748000Y-36790285D01*
X78795619Y-36742666D01*
X79128952Y-36171238D02*
X79081333Y-36266476D01*
X79033714Y-36314095D01*
X78938476Y-36361714D01*
X78890857Y-36361714D01*
X78795619Y-36314095D01*
X78748000Y-36266476D01*
X78700381Y-36171238D01*
X78700381Y-35980761D01*
X78748000Y-35885523D01*
X78795619Y-35837904D01*
X78890857Y-35790285D01*
X78938476Y-35790285D01*
X79033714Y-35837904D01*
X79081333Y-35885523D01*
X79128952Y-35980761D01*
X79128952Y-36171238D01*
X79176571Y-36266476D01*
X79224190Y-36314095D01*
X79319429Y-36361714D01*
X79509905Y-36361714D01*
X79605143Y-36314095D01*
X79652762Y-36266476D01*
X79700381Y-36171238D01*
X79700381Y-35980761D01*
X79652762Y-35885523D01*
X79605143Y-35837904D01*
X79509905Y-35790285D01*
X79319429Y-35790285D01*
X79224190Y-35837904D01*
X79176571Y-35885523D01*
X79128952Y-35980761D01*
X109882381Y-49252095D02*
X108882381Y-49252095D01*
X108882381Y-48871142D01*
X108930000Y-48775904D01*
X108977619Y-48728285D01*
X109072857Y-48680666D01*
X109215714Y-48680666D01*
X109310952Y-48728285D01*
X109358571Y-48775904D01*
X109406190Y-48871142D01*
X109406190Y-49252095D01*
X109215714Y-47823523D02*
X109882381Y-47823523D01*
X108834762Y-48061619D02*
X109549048Y-48299714D01*
X109549048Y-47680666D01*
X90257334Y-27281143D02*
X90209715Y-27328762D01*
X90066858Y-27376381D01*
X89971620Y-27376381D01*
X89828762Y-27328762D01*
X89733524Y-27233524D01*
X89685905Y-27138286D01*
X89638286Y-26947810D01*
X89638286Y-26804952D01*
X89685905Y-26614476D01*
X89733524Y-26519238D01*
X89828762Y-26424000D01*
X89971620Y-26376381D01*
X90066858Y-26376381D01*
X90209715Y-26424000D01*
X90257334Y-26471619D01*
X90590667Y-26376381D02*
X91257334Y-26376381D01*
X90828762Y-27376381D01*
X99107334Y-24721143D02*
X99059715Y-24768762D01*
X98916858Y-24816381D01*
X98821620Y-24816381D01*
X98678762Y-24768762D01*
X98583524Y-24673524D01*
X98535905Y-24578286D01*
X98488286Y-24387810D01*
X98488286Y-24244952D01*
X98535905Y-24054476D01*
X98583524Y-23959238D01*
X98678762Y-23864000D01*
X98821620Y-23816381D01*
X98916858Y-23816381D01*
X99059715Y-23864000D01*
X99107334Y-23911619D01*
X99964477Y-23816381D02*
X99774000Y-23816381D01*
X99678762Y-23864000D01*
X99631143Y-23911619D01*
X99535905Y-24054476D01*
X99488286Y-24244952D01*
X99488286Y-24625905D01*
X99535905Y-24721143D01*
X99583524Y-24768762D01*
X99678762Y-24816381D01*
X99869239Y-24816381D01*
X99964477Y-24768762D01*
X100012096Y-24721143D01*
X100059715Y-24625905D01*
X100059715Y-24387810D01*
X100012096Y-24292571D01*
X99964477Y-24244952D01*
X99869239Y-24197333D01*
X99678762Y-24197333D01*
X99583524Y-24244952D01*
X99535905Y-24292571D01*
X99488286Y-24387810D01*
X77303334Y-43537143D02*
X77255715Y-43584762D01*
X77112858Y-43632381D01*
X77017620Y-43632381D01*
X76874762Y-43584762D01*
X76779524Y-43489524D01*
X76731905Y-43394286D01*
X76684286Y-43203810D01*
X76684286Y-43060952D01*
X76731905Y-42870476D01*
X76779524Y-42775238D01*
X76874762Y-42680000D01*
X77017620Y-42632381D01*
X77112858Y-42632381D01*
X77255715Y-42680000D01*
X77303334Y-42727619D01*
X78208096Y-42632381D02*
X77731905Y-42632381D01*
X77684286Y-43108571D01*
X77731905Y-43060952D01*
X77827143Y-43013333D01*
X78065239Y-43013333D01*
X78160477Y-43060952D01*
X78208096Y-43108571D01*
X78255715Y-43203810D01*
X78255715Y-43441905D01*
X78208096Y-43537143D01*
X78160477Y-43584762D01*
X78065239Y-43632381D01*
X77827143Y-43632381D01*
X77731905Y-43584762D01*
X77684286Y-43537143D01*
X101937143Y-29670666D02*
X101984762Y-29718285D01*
X102032381Y-29861142D01*
X102032381Y-29956380D01*
X101984762Y-30099238D01*
X101889524Y-30194476D01*
X101794286Y-30242095D01*
X101603810Y-30289714D01*
X101460952Y-30289714D01*
X101270476Y-30242095D01*
X101175238Y-30194476D01*
X101080000Y-30099238D01*
X101032381Y-29956380D01*
X101032381Y-29861142D01*
X101080000Y-29718285D01*
X101127619Y-29670666D01*
X102032381Y-28718285D02*
X102032381Y-29289714D01*
X102032381Y-29004000D02*
X101032381Y-29004000D01*
X101175238Y-29099238D01*
X101270476Y-29194476D01*
X101318095Y-29289714D01*
X78716143Y-30519666D02*
X78763762Y-30567285D01*
X78811381Y-30710142D01*
X78811381Y-30805380D01*
X78763762Y-30948238D01*
X78668524Y-31043476D01*
X78573286Y-31091095D01*
X78382810Y-31138714D01*
X78239952Y-31138714D01*
X78049476Y-31091095D01*
X77954238Y-31043476D01*
X77859000Y-30948238D01*
X77811381Y-30805380D01*
X77811381Y-30710142D01*
X77859000Y-30567285D01*
X77906619Y-30519666D01*
X77906619Y-30138714D02*
X77859000Y-30091095D01*
X77811381Y-29995857D01*
X77811381Y-29757761D01*
X77859000Y-29662523D01*
X77906619Y-29614904D01*
X78001857Y-29567285D01*
X78097095Y-29567285D01*
X78239952Y-29614904D01*
X78811381Y-30186333D01*
X78811381Y-29567285D01*
X116276381Y-31472095D02*
X115276381Y-31472095D01*
X115276381Y-31234000D01*
X115324000Y-31091142D01*
X115419238Y-30995904D01*
X115514476Y-30948285D01*
X115704952Y-30900666D01*
X115847810Y-30900666D01*
X116038286Y-30948285D01*
X116133524Y-30995904D01*
X116228762Y-31091142D01*
X116276381Y-31234000D01*
X116276381Y-31472095D01*
X115371619Y-30519714D02*
X115324000Y-30472095D01*
X115276381Y-30376857D01*
X115276381Y-30138761D01*
X115324000Y-30043523D01*
X115371619Y-29995904D01*
X115466857Y-29948285D01*
X115562095Y-29948285D01*
X115704952Y-29995904D01*
X116276381Y-30567333D01*
X116276381Y-29948285D01*
X111704381Y-31472095D02*
X110704381Y-31472095D01*
X110704381Y-31234000D01*
X110752000Y-31091142D01*
X110847238Y-30995904D01*
X110942476Y-30948285D01*
X111132952Y-30900666D01*
X111275810Y-30900666D01*
X111466286Y-30948285D01*
X111561524Y-30995904D01*
X111656762Y-31091142D01*
X111704381Y-31234000D01*
X111704381Y-31472095D01*
X110704381Y-30567333D02*
X110704381Y-29948285D01*
X111085333Y-30281619D01*
X111085333Y-30138761D01*
X111132952Y-30043523D01*
X111180571Y-29995904D01*
X111275810Y-29948285D01*
X111513905Y-29948285D01*
X111609143Y-29995904D01*
X111656762Y-30043523D01*
X111704381Y-30138761D01*
X111704381Y-30424476D01*
X111656762Y-30519714D01*
X111609143Y-30567333D01*
X120848381Y-31472095D02*
X119848381Y-31472095D01*
X119848381Y-31234000D01*
X119896000Y-31091142D01*
X119991238Y-30995904D01*
X120086476Y-30948285D01*
X120276952Y-30900666D01*
X120419810Y-30900666D01*
X120610286Y-30948285D01*
X120705524Y-30995904D01*
X120800762Y-31091142D01*
X120848381Y-31234000D01*
X120848381Y-31472095D01*
X120848381Y-29948285D02*
X120848381Y-30519714D01*
X120848381Y-30234000D02*
X119848381Y-30234000D01*
X119991238Y-30329238D01*
X120086476Y-30424476D01*
X120134095Y-30519714D01*
X55141905Y-51462381D02*
X55141905Y-50462381D01*
X55522858Y-50462381D01*
X55618096Y-50510000D01*
X55665715Y-50557619D01*
X55713334Y-50652857D01*
X55713334Y-50795714D01*
X55665715Y-50890952D01*
X55618096Y-50938571D01*
X55522858Y-50986190D01*
X55141905Y-50986190D01*
X56094286Y-50557619D02*
X56141905Y-50510000D01*
X56237143Y-50462381D01*
X56475239Y-50462381D01*
X56570477Y-50510000D01*
X56618096Y-50557619D01*
X56665715Y-50652857D01*
X56665715Y-50748095D01*
X56618096Y-50890952D01*
X56046667Y-51462381D01*
X56665715Y-51462381D01*
X67524381Y-31067333D02*
X68238667Y-31067333D01*
X68381524Y-31114953D01*
X68476762Y-31210191D01*
X68524381Y-31353048D01*
X68524381Y-31448286D01*
X68524381Y-30067333D02*
X68524381Y-30638762D01*
X68524381Y-30353048D02*
X67524381Y-30353048D01*
X67667238Y-30448286D01*
X67762476Y-30543524D01*
X67810095Y-30638762D01*
X68541143Y-38794666D02*
X68588762Y-38842285D01*
X68636381Y-38985142D01*
X68636381Y-39080380D01*
X68588762Y-39223238D01*
X68493524Y-39318476D01*
X68398286Y-39366095D01*
X68207810Y-39413714D01*
X68064952Y-39413714D01*
X67874476Y-39366095D01*
X67779238Y-39318476D01*
X67684000Y-39223238D01*
X67636381Y-39080380D01*
X67636381Y-38985142D01*
X67684000Y-38842285D01*
X67731619Y-38794666D01*
X67969714Y-37937523D02*
X68636381Y-37937523D01*
X67588762Y-38175619D02*
X68303048Y-38413714D01*
X68303048Y-37794666D01*
X62841143Y-40679666D02*
X62888762Y-40727285D01*
X62936381Y-40870142D01*
X62936381Y-40965380D01*
X62888762Y-41108238D01*
X62793524Y-41203476D01*
X62698286Y-41251095D01*
X62507810Y-41298714D01*
X62364952Y-41298714D01*
X62174476Y-41251095D01*
X62079238Y-41203476D01*
X61984000Y-41108238D01*
X61936381Y-40965380D01*
X61936381Y-40870142D01*
X61984000Y-40727285D01*
X62031619Y-40679666D01*
X61936381Y-40346333D02*
X61936381Y-39727285D01*
X62317333Y-40060619D01*
X62317333Y-39917761D01*
X62364952Y-39822523D01*
X62412571Y-39774904D01*
X62507810Y-39727285D01*
X62745905Y-39727285D01*
X62841143Y-39774904D01*
X62888762Y-39822523D01*
X62936381Y-39917761D01*
X62936381Y-40203476D01*
X62888762Y-40298714D01*
X62841143Y-40346333D01*
X118491095Y-60031381D02*
X118491095Y-60840905D01*
X118538714Y-60936143D01*
X118586333Y-60983762D01*
X118681571Y-61031381D01*
X118872048Y-61031381D01*
X118967286Y-60983762D01*
X119014905Y-60936143D01*
X119062524Y-60840905D01*
X119062524Y-60031381D01*
X120062524Y-61031381D02*
X119491095Y-61031381D01*
X119776809Y-61031381D02*
X119776809Y-60031381D01*
X119681571Y-60174238D01*
X119586333Y-60269476D01*
X119491095Y-60317095D01*
X54864095Y-26272381D02*
X54864095Y-27081905D01*
X54911714Y-27177143D01*
X54959333Y-27224762D01*
X55054571Y-27272381D01*
X55245048Y-27272381D01*
X55340286Y-27224762D01*
X55387905Y-27177143D01*
X55435524Y-27081905D01*
X55435524Y-26272381D01*
X55864095Y-26367619D02*
X55911714Y-26320000D01*
X56006952Y-26272381D01*
X56245048Y-26272381D01*
X56340286Y-26320000D01*
X56387905Y-26367619D01*
X56435524Y-26462857D01*
X56435524Y-26558095D01*
X56387905Y-26700952D01*
X55816476Y-27272381D01*
X56435524Y-27272381D01*
X107061095Y-60031381D02*
X107061095Y-60840905D01*
X107108714Y-60936143D01*
X107156333Y-60983762D01*
X107251571Y-61031381D01*
X107442048Y-61031381D01*
X107537286Y-60983762D01*
X107584905Y-60936143D01*
X107632524Y-60840905D01*
X107632524Y-60031381D01*
X108013476Y-60031381D02*
X108632524Y-60031381D01*
X108299190Y-60412333D01*
X108442048Y-60412333D01*
X108537286Y-60459952D01*
X108584905Y-60507571D01*
X108632524Y-60602810D01*
X108632524Y-60840905D01*
X108584905Y-60936143D01*
X108537286Y-60983762D01*
X108442048Y-61031381D01*
X108156333Y-61031381D01*
X108061095Y-60983762D01*
X108013476Y-60936143D01*
X95631095Y-81113381D02*
X95631095Y-81922905D01*
X95678714Y-82018143D01*
X95726333Y-82065762D01*
X95821571Y-82113381D01*
X96012048Y-82113381D01*
X96107286Y-82065762D01*
X96154905Y-82018143D01*
X96202524Y-81922905D01*
X96202524Y-81113381D01*
X97107286Y-81446714D02*
X97107286Y-82113381D01*
X96869190Y-81065762D02*
X96631095Y-81780048D01*
X97250143Y-81780048D01*
X23732381Y-31241905D02*
X24541905Y-31241905D01*
X24637143Y-31194286D01*
X24684762Y-31146667D01*
X24732381Y-31051429D01*
X24732381Y-30860952D01*
X24684762Y-30765714D01*
X24637143Y-30718095D01*
X24541905Y-30670476D01*
X23732381Y-30670476D01*
X23732381Y-29718095D02*
X23732381Y-30194286D01*
X24208571Y-30241905D01*
X24160952Y-30194286D01*
X24113333Y-30099048D01*
X24113333Y-29860952D01*
X24160952Y-29765714D01*
X24208571Y-29718095D01*
X24303810Y-29670476D01*
X24541905Y-29670476D01*
X24637143Y-29718095D01*
X24684762Y-29765714D01*
X24732381Y-29860952D01*
X24732381Y-30099048D01*
X24684762Y-30194286D01*
X24637143Y-30241905D01*
X33742381Y-120395905D02*
X34551905Y-120395905D01*
X34647143Y-120348286D01*
X34694762Y-120300667D01*
X34742381Y-120205429D01*
X34742381Y-120014952D01*
X34694762Y-119919714D01*
X34647143Y-119872095D01*
X34551905Y-119824476D01*
X33742381Y-119824476D01*
X33742381Y-118919714D02*
X33742381Y-119110191D01*
X33790000Y-119205429D01*
X33837619Y-119253048D01*
X33980476Y-119348286D01*
X34170952Y-119395905D01*
X34551905Y-119395905D01*
X34647143Y-119348286D01*
X34694762Y-119300667D01*
X34742381Y-119205429D01*
X34742381Y-119014952D01*
X34694762Y-118919714D01*
X34647143Y-118872095D01*
X34551905Y-118824476D01*
X34313810Y-118824476D01*
X34218571Y-118872095D01*
X34170952Y-118919714D01*
X34123333Y-119014952D01*
X34123333Y-119205429D01*
X34170952Y-119300667D01*
X34218571Y-119348286D01*
X34313810Y-119395905D01*
X118491095Y-80986381D02*
X118491095Y-81795905D01*
X118538714Y-81891143D01*
X118586333Y-81938762D01*
X118681571Y-81986381D01*
X118872048Y-81986381D01*
X118967286Y-81938762D01*
X119014905Y-81891143D01*
X119062524Y-81795905D01*
X119062524Y-80986381D01*
X119443476Y-80986381D02*
X120110143Y-80986381D01*
X119681571Y-81986381D01*
X33742381Y-77215905D02*
X34551905Y-77215905D01*
X34647143Y-77168286D01*
X34694762Y-77120667D01*
X34742381Y-77025429D01*
X34742381Y-76834952D01*
X34694762Y-76739714D01*
X34647143Y-76692095D01*
X34551905Y-76644476D01*
X33742381Y-76644476D01*
X34170952Y-76025429D02*
X34123333Y-76120667D01*
X34075714Y-76168286D01*
X33980476Y-76215905D01*
X33932857Y-76215905D01*
X33837619Y-76168286D01*
X33790000Y-76120667D01*
X33742381Y-76025429D01*
X33742381Y-75834952D01*
X33790000Y-75739714D01*
X33837619Y-75692095D01*
X33932857Y-75644476D01*
X33980476Y-75644476D01*
X34075714Y-75692095D01*
X34123333Y-75739714D01*
X34170952Y-75834952D01*
X34170952Y-76025429D01*
X34218571Y-76120667D01*
X34266190Y-76168286D01*
X34361429Y-76215905D01*
X34551905Y-76215905D01*
X34647143Y-76168286D01*
X34694762Y-76120667D01*
X34742381Y-76025429D01*
X34742381Y-75834952D01*
X34694762Y-75739714D01*
X34647143Y-75692095D01*
X34551905Y-75644476D01*
X34361429Y-75644476D01*
X34266190Y-75692095D01*
X34218571Y-75739714D01*
X34170952Y-75834952D01*
X95631095Y-60031381D02*
X95631095Y-60840905D01*
X95678714Y-60936143D01*
X95726333Y-60983762D01*
X95821571Y-61031381D01*
X96012048Y-61031381D01*
X96107286Y-60983762D01*
X96154905Y-60936143D01*
X96202524Y-60840905D01*
X96202524Y-60031381D01*
X96726333Y-61031381D02*
X96916809Y-61031381D01*
X97012048Y-60983762D01*
X97059667Y-60936143D01*
X97154905Y-60793286D01*
X97202524Y-60602810D01*
X97202524Y-60221857D01*
X97154905Y-60126619D01*
X97107286Y-60079000D01*
X97012048Y-60031381D01*
X96821571Y-60031381D01*
X96726333Y-60079000D01*
X96678714Y-60126619D01*
X96631095Y-60221857D01*
X96631095Y-60459952D01*
X96678714Y-60555190D01*
X96726333Y-60602810D01*
X96821571Y-60650429D01*
X97012048Y-60650429D01*
X97107286Y-60602810D01*
X97154905Y-60555190D01*
X97202524Y-60459952D01*
X106584905Y-81113381D02*
X106584905Y-81922905D01*
X106632524Y-82018143D01*
X106680143Y-82065762D01*
X106775381Y-82113381D01*
X106965858Y-82113381D01*
X107061096Y-82065762D01*
X107108715Y-82018143D01*
X107156334Y-81922905D01*
X107156334Y-81113381D01*
X108156334Y-82113381D02*
X107584905Y-82113381D01*
X107870619Y-82113381D02*
X107870619Y-81113381D01*
X107775381Y-81256238D01*
X107680143Y-81351476D01*
X107584905Y-81399095D01*
X108775381Y-81113381D02*
X108870620Y-81113381D01*
X108965858Y-81161000D01*
X109013477Y-81208619D01*
X109061096Y-81303857D01*
X109108715Y-81494333D01*
X109108715Y-81732429D01*
X109061096Y-81922905D01*
X109013477Y-82018143D01*
X108965858Y-82065762D01*
X108870620Y-82113381D01*
X108775381Y-82113381D01*
X108680143Y-82065762D01*
X108632524Y-82018143D01*
X108584905Y-81922905D01*
X108537286Y-81732429D01*
X108537286Y-81494333D01*
X108584905Y-81303857D01*
X108632524Y-81208619D01*
X108680143Y-81161000D01*
X108775381Y-81113381D01*
X23732381Y-42513095D02*
X24541905Y-42513095D01*
X24637143Y-42465476D01*
X24684762Y-42417857D01*
X24732381Y-42322619D01*
X24732381Y-42132142D01*
X24684762Y-42036904D01*
X24637143Y-41989285D01*
X24541905Y-41941666D01*
X23732381Y-41941666D01*
X24732381Y-40941666D02*
X24732381Y-41513095D01*
X24732381Y-41227381D02*
X23732381Y-41227381D01*
X23875238Y-41322619D01*
X23970476Y-41417857D01*
X24018095Y-41513095D01*
X24732381Y-39989285D02*
X24732381Y-40560714D01*
X24732381Y-40275000D02*
X23732381Y-40275000D01*
X23875238Y-40370238D01*
X23970476Y-40465476D01*
X24018095Y-40560714D01*
X33615381Y-110204095D02*
X34424905Y-110204095D01*
X34520143Y-110156476D01*
X34567762Y-110108857D01*
X34615381Y-110013619D01*
X34615381Y-109823142D01*
X34567762Y-109727904D01*
X34520143Y-109680285D01*
X34424905Y-109632666D01*
X33615381Y-109632666D01*
X34615381Y-108632666D02*
X34615381Y-109204095D01*
X34615381Y-108918381D02*
X33615381Y-108918381D01*
X33758238Y-109013619D01*
X33853476Y-109108857D01*
X33901095Y-109204095D01*
X33710619Y-108251714D02*
X33663000Y-108204095D01*
X33615381Y-108108857D01*
X33615381Y-107870761D01*
X33663000Y-107775523D01*
X33710619Y-107727904D01*
X33805857Y-107680285D01*
X33901095Y-107680285D01*
X34043952Y-107727904D01*
X34615381Y-108299333D01*
X34615381Y-107680285D01*
X118014905Y-112736381D02*
X118014905Y-113545905D01*
X118062524Y-113641143D01*
X118110143Y-113688762D01*
X118205381Y-113736381D01*
X118395858Y-113736381D01*
X118491096Y-113688762D01*
X118538715Y-113641143D01*
X118586334Y-113545905D01*
X118586334Y-112736381D01*
X119586334Y-113736381D02*
X119014905Y-113736381D01*
X119300619Y-113736381D02*
X119300619Y-112736381D01*
X119205381Y-112879238D01*
X119110143Y-112974476D01*
X119014905Y-113022095D01*
X119919667Y-112736381D02*
X120538715Y-112736381D01*
X120205381Y-113117333D01*
X120348239Y-113117333D01*
X120443477Y-113164952D01*
X120491096Y-113212571D01*
X120538715Y-113307810D01*
X120538715Y-113545905D01*
X120491096Y-113641143D01*
X120443477Y-113688762D01*
X120348239Y-113736381D01*
X120062524Y-113736381D01*
X119967286Y-113688762D01*
X119919667Y-113641143D01*
X83724905Y-60031381D02*
X83724905Y-60840905D01*
X83772524Y-60936143D01*
X83820143Y-60983762D01*
X83915381Y-61031381D01*
X84105858Y-61031381D01*
X84201096Y-60983762D01*
X84248715Y-60936143D01*
X84296334Y-60840905D01*
X84296334Y-60031381D01*
X85296334Y-61031381D02*
X84724905Y-61031381D01*
X85010619Y-61031381D02*
X85010619Y-60031381D01*
X84915381Y-60174238D01*
X84820143Y-60269476D01*
X84724905Y-60317095D01*
X86153477Y-60364714D02*
X86153477Y-61031381D01*
X85915381Y-59983762D02*
X85677286Y-60698048D01*
X86296334Y-60698048D01*
X106584905Y-112609381D02*
X106584905Y-113418905D01*
X106632524Y-113514143D01*
X106680143Y-113561762D01*
X106775381Y-113609381D01*
X106965858Y-113609381D01*
X107061096Y-113561762D01*
X107108715Y-113514143D01*
X107156334Y-113418905D01*
X107156334Y-112609381D01*
X108156334Y-113609381D02*
X107584905Y-113609381D01*
X107870619Y-113609381D02*
X107870619Y-112609381D01*
X107775381Y-112752238D01*
X107680143Y-112847476D01*
X107584905Y-112895095D01*
X109061096Y-112609381D02*
X108584905Y-112609381D01*
X108537286Y-113085571D01*
X108584905Y-113037952D01*
X108680143Y-112990333D01*
X108918239Y-112990333D01*
X109013477Y-113037952D01*
X109061096Y-113085571D01*
X109108715Y-113180810D01*
X109108715Y-113418905D01*
X109061096Y-113514143D01*
X109013477Y-113561762D01*
X108918239Y-113609381D01*
X108680143Y-113609381D01*
X108584905Y-113561762D01*
X108537286Y-113514143D01*
X23732381Y-53308095D02*
X24541905Y-53308095D01*
X24637143Y-53260476D01*
X24684762Y-53212857D01*
X24732381Y-53117619D01*
X24732381Y-52927142D01*
X24684762Y-52831904D01*
X24637143Y-52784285D01*
X24541905Y-52736666D01*
X23732381Y-52736666D01*
X24732381Y-51736666D02*
X24732381Y-52308095D01*
X24732381Y-52022381D02*
X23732381Y-52022381D01*
X23875238Y-52117619D01*
X23970476Y-52212857D01*
X24018095Y-52308095D01*
X23732381Y-50879523D02*
X23732381Y-51070000D01*
X23780000Y-51165238D01*
X23827619Y-51212857D01*
X23970476Y-51308095D01*
X24160952Y-51355714D01*
X24541905Y-51355714D01*
X24637143Y-51308095D01*
X24684762Y-51260476D01*
X24732381Y-51165238D01*
X24732381Y-50974761D01*
X24684762Y-50879523D01*
X24637143Y-50831904D01*
X24541905Y-50784285D01*
X24303810Y-50784285D01*
X24208571Y-50831904D01*
X24160952Y-50879523D01*
X24113333Y-50974761D01*
X24113333Y-51165238D01*
X24160952Y-51260476D01*
X24208571Y-51308095D01*
X24303810Y-51355714D01*
X33615381Y-99282095D02*
X34424905Y-99282095D01*
X34520143Y-99234476D01*
X34567762Y-99186857D01*
X34615381Y-99091619D01*
X34615381Y-98901142D01*
X34567762Y-98805904D01*
X34520143Y-98758285D01*
X34424905Y-98710666D01*
X33615381Y-98710666D01*
X34615381Y-97710666D02*
X34615381Y-98282095D01*
X34615381Y-97996381D02*
X33615381Y-97996381D01*
X33758238Y-98091619D01*
X33853476Y-98186857D01*
X33901095Y-98282095D01*
X33615381Y-97377333D02*
X33615381Y-96710666D01*
X34615381Y-97139238D01*
X72294905Y-60031381D02*
X72294905Y-60840905D01*
X72342524Y-60936143D01*
X72390143Y-60983762D01*
X72485381Y-61031381D01*
X72675858Y-61031381D01*
X72771096Y-60983762D01*
X72818715Y-60936143D01*
X72866334Y-60840905D01*
X72866334Y-60031381D01*
X73866334Y-61031381D02*
X73294905Y-61031381D01*
X73580619Y-61031381D02*
X73580619Y-60031381D01*
X73485381Y-60174238D01*
X73390143Y-60269476D01*
X73294905Y-60317095D01*
X74437762Y-60459952D02*
X74342524Y-60412333D01*
X74294905Y-60364714D01*
X74247286Y-60269476D01*
X74247286Y-60221857D01*
X74294905Y-60126619D01*
X74342524Y-60079000D01*
X74437762Y-60031381D01*
X74628239Y-60031381D01*
X74723477Y-60079000D01*
X74771096Y-60126619D01*
X74818715Y-60221857D01*
X74818715Y-60269476D01*
X74771096Y-60364714D01*
X74723477Y-60412333D01*
X74628239Y-60459952D01*
X74437762Y-60459952D01*
X74342524Y-60507571D01*
X74294905Y-60555190D01*
X74247286Y-60650429D01*
X74247286Y-60840905D01*
X74294905Y-60936143D01*
X74342524Y-60983762D01*
X74437762Y-61031381D01*
X74628239Y-61031381D01*
X74723477Y-60983762D01*
X74771096Y-60936143D01*
X74818715Y-60840905D01*
X74818715Y-60650429D01*
X74771096Y-60555190D01*
X74723477Y-60507571D01*
X74628239Y-60459952D01*
X95154905Y-112482381D02*
X95154905Y-113291905D01*
X95202524Y-113387143D01*
X95250143Y-113434762D01*
X95345381Y-113482381D01*
X95535858Y-113482381D01*
X95631096Y-113434762D01*
X95678715Y-113387143D01*
X95726334Y-113291905D01*
X95726334Y-112482381D01*
X96726334Y-113482381D02*
X96154905Y-113482381D01*
X96440619Y-113482381D02*
X96440619Y-112482381D01*
X96345381Y-112625238D01*
X96250143Y-112720476D01*
X96154905Y-112768095D01*
X97202524Y-113482381D02*
X97393000Y-113482381D01*
X97488239Y-113434762D01*
X97535858Y-113387143D01*
X97631096Y-113244286D01*
X97678715Y-113053810D01*
X97678715Y-112672857D01*
X97631096Y-112577619D01*
X97583477Y-112530000D01*
X97488239Y-112482381D01*
X97297762Y-112482381D01*
X97202524Y-112530000D01*
X97154905Y-112577619D01*
X97107286Y-112672857D01*
X97107286Y-112910952D01*
X97154905Y-113006190D01*
X97202524Y-113053810D01*
X97297762Y-113101429D01*
X97488239Y-113101429D01*
X97583477Y-113053810D01*
X97631096Y-113006190D01*
X97678715Y-112910952D01*
X33615381Y-64103095D02*
X34424905Y-64103095D01*
X34520143Y-64055476D01*
X34567762Y-64007857D01*
X34615381Y-63912619D01*
X34615381Y-63722142D01*
X34567762Y-63626904D01*
X34520143Y-63579285D01*
X34424905Y-63531666D01*
X33615381Y-63531666D01*
X33710619Y-63103095D02*
X33663000Y-63055476D01*
X33615381Y-62960238D01*
X33615381Y-62722142D01*
X33663000Y-62626904D01*
X33710619Y-62579285D01*
X33805857Y-62531666D01*
X33901095Y-62531666D01*
X34043952Y-62579285D01*
X34615381Y-63150714D01*
X34615381Y-62531666D01*
X34615381Y-61579285D02*
X34615381Y-62150714D01*
X34615381Y-61865000D02*
X33615381Y-61865000D01*
X33758238Y-61960238D01*
X33853476Y-62055476D01*
X33901095Y-62150714D01*
X33742381Y-88614095D02*
X34551905Y-88614095D01*
X34647143Y-88566476D01*
X34694762Y-88518857D01*
X34742381Y-88423619D01*
X34742381Y-88233142D01*
X34694762Y-88137904D01*
X34647143Y-88090285D01*
X34551905Y-88042666D01*
X33742381Y-88042666D01*
X33837619Y-87614095D02*
X33790000Y-87566476D01*
X33742381Y-87471238D01*
X33742381Y-87233142D01*
X33790000Y-87137904D01*
X33837619Y-87090285D01*
X33932857Y-87042666D01*
X34028095Y-87042666D01*
X34170952Y-87090285D01*
X34742381Y-87661714D01*
X34742381Y-87042666D01*
X33837619Y-86661714D02*
X33790000Y-86614095D01*
X33742381Y-86518857D01*
X33742381Y-86280761D01*
X33790000Y-86185523D01*
X33837619Y-86137904D01*
X33932857Y-86090285D01*
X34028095Y-86090285D01*
X34170952Y-86137904D01*
X34742381Y-86709333D01*
X34742381Y-86090285D01*
X72421905Y-80859381D02*
X72421905Y-81668905D01*
X72469524Y-81764143D01*
X72517143Y-81811762D01*
X72612381Y-81859381D01*
X72802858Y-81859381D01*
X72898096Y-81811762D01*
X72945715Y-81764143D01*
X72993334Y-81668905D01*
X72993334Y-80859381D01*
X73421905Y-80954619D02*
X73469524Y-80907000D01*
X73564762Y-80859381D01*
X73802858Y-80859381D01*
X73898096Y-80907000D01*
X73945715Y-80954619D01*
X73993334Y-81049857D01*
X73993334Y-81145095D01*
X73945715Y-81287952D01*
X73374286Y-81859381D01*
X73993334Y-81859381D01*
X74326667Y-80859381D02*
X74945715Y-80859381D01*
X74612381Y-81240333D01*
X74755239Y-81240333D01*
X74850477Y-81287952D01*
X74898096Y-81335571D01*
X74945715Y-81430810D01*
X74945715Y-81668905D01*
X74898096Y-81764143D01*
X74850477Y-81811762D01*
X74755239Y-81859381D01*
X74469524Y-81859381D01*
X74374286Y-81811762D01*
X74326667Y-81764143D01*
X83597905Y-112609381D02*
X83597905Y-113418905D01*
X83645524Y-113514143D01*
X83693143Y-113561762D01*
X83788381Y-113609381D01*
X83978858Y-113609381D01*
X84074096Y-113561762D01*
X84121715Y-113514143D01*
X84169334Y-113418905D01*
X84169334Y-112609381D01*
X84597905Y-112704619D02*
X84645524Y-112657000D01*
X84740762Y-112609381D01*
X84978858Y-112609381D01*
X85074096Y-112657000D01*
X85121715Y-112704619D01*
X85169334Y-112799857D01*
X85169334Y-112895095D01*
X85121715Y-113037952D01*
X84550286Y-113609381D01*
X85169334Y-113609381D01*
X86026477Y-112942714D02*
X86026477Y-113609381D01*
X85788381Y-112561762D02*
X85550286Y-113276048D01*
X86169334Y-113276048D01*
X83724905Y-80986381D02*
X83724905Y-81795905D01*
X83772524Y-81891143D01*
X83820143Y-81938762D01*
X83915381Y-81986381D01*
X84105858Y-81986381D01*
X84201096Y-81938762D01*
X84248715Y-81891143D01*
X84296334Y-81795905D01*
X84296334Y-80986381D01*
X84724905Y-81081619D02*
X84772524Y-81034000D01*
X84867762Y-80986381D01*
X85105858Y-80986381D01*
X85201096Y-81034000D01*
X85248715Y-81081619D01*
X85296334Y-81176857D01*
X85296334Y-81272095D01*
X85248715Y-81414952D01*
X84677286Y-81986381D01*
X85296334Y-81986381D01*
X86201096Y-80986381D02*
X85724905Y-80986381D01*
X85677286Y-81462571D01*
X85724905Y-81414952D01*
X85820143Y-81367333D01*
X86058239Y-81367333D01*
X86153477Y-81414952D01*
X86201096Y-81462571D01*
X86248715Y-81557810D01*
X86248715Y-81795905D01*
X86201096Y-81891143D01*
X86153477Y-81938762D01*
X86058239Y-81986381D01*
X85820143Y-81986381D01*
X85724905Y-81938762D01*
X85677286Y-81891143D01*
X72294905Y-112609381D02*
X72294905Y-113418905D01*
X72342524Y-113514143D01*
X72390143Y-113561762D01*
X72485381Y-113609381D01*
X72675858Y-113609381D01*
X72771096Y-113561762D01*
X72818715Y-113514143D01*
X72866334Y-113418905D01*
X72866334Y-112609381D01*
X73294905Y-112704619D02*
X73342524Y-112657000D01*
X73437762Y-112609381D01*
X73675858Y-112609381D01*
X73771096Y-112657000D01*
X73818715Y-112704619D01*
X73866334Y-112799857D01*
X73866334Y-112895095D01*
X73818715Y-113037952D01*
X73247286Y-113609381D01*
X73866334Y-113609381D01*
X74723477Y-112609381D02*
X74533000Y-112609381D01*
X74437762Y-112657000D01*
X74390143Y-112704619D01*
X74294905Y-112847476D01*
X74247286Y-113037952D01*
X74247286Y-113418905D01*
X74294905Y-113514143D01*
X74342524Y-113561762D01*
X74437762Y-113609381D01*
X74628239Y-113609381D01*
X74723477Y-113561762D01*
X74771096Y-113514143D01*
X74818715Y-113418905D01*
X74818715Y-113180810D01*
X74771096Y-113085571D01*
X74723477Y-113037952D01*
X74628239Y-112990333D01*
X74437762Y-112990333D01*
X74342524Y-113037952D01*
X74294905Y-113085571D01*
X74247286Y-113180810D01*
X117666381Y-40608095D02*
X118475905Y-40608095D01*
X118571143Y-40560476D01*
X118618762Y-40512857D01*
X118666381Y-40417619D01*
X118666381Y-40227142D01*
X118618762Y-40131904D01*
X118571143Y-40084285D01*
X118475905Y-40036666D01*
X117666381Y-40036666D01*
X117761619Y-39608095D02*
X117714000Y-39560476D01*
X117666381Y-39465238D01*
X117666381Y-39227142D01*
X117714000Y-39131904D01*
X117761619Y-39084285D01*
X117856857Y-39036666D01*
X117952095Y-39036666D01*
X118094952Y-39084285D01*
X118666381Y-39655714D01*
X118666381Y-39036666D01*
X118094952Y-38465238D02*
X118047333Y-38560476D01*
X117999714Y-38608095D01*
X117904476Y-38655714D01*
X117856857Y-38655714D01*
X117761619Y-38608095D01*
X117714000Y-38560476D01*
X117666381Y-38465238D01*
X117666381Y-38274761D01*
X117714000Y-38179523D01*
X117761619Y-38131904D01*
X117856857Y-38084285D01*
X117904476Y-38084285D01*
X117999714Y-38131904D01*
X118047333Y-38179523D01*
X118094952Y-38274761D01*
X118094952Y-38465238D01*
X118142571Y-38560476D01*
X118190190Y-38608095D01*
X118285429Y-38655714D01*
X118475905Y-38655714D01*
X118571143Y-38608095D01*
X118618762Y-38560476D01*
X118666381Y-38465238D01*
X118666381Y-38274761D01*
X118618762Y-38179523D01*
X118571143Y-38131904D01*
X118475905Y-38084285D01*
X118285429Y-38084285D01*
X118190190Y-38131904D01*
X118142571Y-38179523D01*
X118094952Y-38274761D01*
X67905381Y-42894095D02*
X68714905Y-42894095D01*
X68810143Y-42846476D01*
X68857762Y-42798857D01*
X68905381Y-42703619D01*
X68905381Y-42513142D01*
X68857762Y-42417904D01*
X68810143Y-42370285D01*
X68714905Y-42322666D01*
X67905381Y-42322666D01*
X68000619Y-41894095D02*
X67953000Y-41846476D01*
X67905381Y-41751238D01*
X67905381Y-41513142D01*
X67953000Y-41417904D01*
X68000619Y-41370285D01*
X68095857Y-41322666D01*
X68191095Y-41322666D01*
X68333952Y-41370285D01*
X68905381Y-41941714D01*
X68905381Y-41322666D01*
X67905381Y-40989333D02*
X67905381Y-40322666D01*
X68905381Y-40751238D01*
X120086381Y-42076666D02*
X119610190Y-42410000D01*
X120086381Y-42648095D02*
X119086381Y-42648095D01*
X119086381Y-42267142D01*
X119134000Y-42171904D01*
X119181619Y-42124285D01*
X119276857Y-42076666D01*
X119419714Y-42076666D01*
X119514952Y-42124285D01*
X119562571Y-42171904D01*
X119610190Y-42267142D01*
X119610190Y-42648095D01*
X120086381Y-41124285D02*
X120086381Y-41695714D01*
X120086381Y-41410000D02*
X119086381Y-41410000D01*
X119229238Y-41505238D01*
X119324476Y-41600476D01*
X119372095Y-41695714D01*
X122499381Y-42076666D02*
X122023190Y-42410000D01*
X122499381Y-42648095D02*
X121499381Y-42648095D01*
X121499381Y-42267142D01*
X121547000Y-42171904D01*
X121594619Y-42124285D01*
X121689857Y-42076666D01*
X121832714Y-42076666D01*
X121927952Y-42124285D01*
X121975571Y-42171904D01*
X122023190Y-42267142D01*
X122023190Y-42648095D01*
X121594619Y-41695714D02*
X121547000Y-41648095D01*
X121499381Y-41552857D01*
X121499381Y-41314761D01*
X121547000Y-41219523D01*
X121594619Y-41171904D01*
X121689857Y-41124285D01*
X121785095Y-41124285D01*
X121927952Y-41171904D01*
X122499381Y-41743333D01*
X122499381Y-41124285D01*
X118451334Y-26106381D02*
X118118000Y-25630190D01*
X117879905Y-26106381D02*
X117879905Y-25106381D01*
X118260858Y-25106381D01*
X118356096Y-25154000D01*
X118403715Y-25201619D01*
X118451334Y-25296857D01*
X118451334Y-25439714D01*
X118403715Y-25534952D01*
X118356096Y-25582571D01*
X118260858Y-25630190D01*
X117879905Y-25630190D01*
X118784667Y-25106381D02*
X119403715Y-25106381D01*
X119070381Y-25487333D01*
X119213239Y-25487333D01*
X119308477Y-25534952D01*
X119356096Y-25582571D01*
X119403715Y-25677810D01*
X119403715Y-25915905D01*
X119356096Y-26011143D01*
X119308477Y-26058762D01*
X119213239Y-26106381D01*
X118927524Y-26106381D01*
X118832286Y-26058762D01*
X118784667Y-26011143D01*
X114006334Y-26106381D02*
X113673000Y-25630190D01*
X113434905Y-26106381D02*
X113434905Y-25106381D01*
X113815858Y-25106381D01*
X113911096Y-25154000D01*
X113958715Y-25201619D01*
X114006334Y-25296857D01*
X114006334Y-25439714D01*
X113958715Y-25534952D01*
X113911096Y-25582571D01*
X113815858Y-25630190D01*
X113434905Y-25630190D01*
X114863477Y-25439714D02*
X114863477Y-26106381D01*
X114625381Y-25058762D02*
X114387286Y-25773048D01*
X115006334Y-25773048D01*
X109180334Y-26106381D02*
X108847000Y-25630190D01*
X108608905Y-26106381D02*
X108608905Y-25106381D01*
X108989858Y-25106381D01*
X109085096Y-25154000D01*
X109132715Y-25201619D01*
X109180334Y-25296857D01*
X109180334Y-25439714D01*
X109132715Y-25534952D01*
X109085096Y-25582571D01*
X108989858Y-25630190D01*
X108608905Y-25630190D01*
X110085096Y-25106381D02*
X109608905Y-25106381D01*
X109561286Y-25582571D01*
X109608905Y-25534952D01*
X109704143Y-25487333D01*
X109942239Y-25487333D01*
X110037477Y-25534952D01*
X110085096Y-25582571D01*
X110132715Y-25677810D01*
X110132715Y-25915905D01*
X110085096Y-26011143D01*
X110037477Y-26058762D01*
X109942239Y-26106381D01*
X109704143Y-26106381D01*
X109608905Y-26058762D01*
X109561286Y-26011143D01*
X120213381Y-36996666D02*
X119737190Y-37330000D01*
X120213381Y-37568095D02*
X119213381Y-37568095D01*
X119213381Y-37187142D01*
X119261000Y-37091904D01*
X119308619Y-37044285D01*
X119403857Y-36996666D01*
X119546714Y-36996666D01*
X119641952Y-37044285D01*
X119689571Y-37091904D01*
X119737190Y-37187142D01*
X119737190Y-37568095D01*
X119213381Y-36139523D02*
X119213381Y-36330000D01*
X119261000Y-36425238D01*
X119308619Y-36472857D01*
X119451476Y-36568095D01*
X119641952Y-36615714D01*
X120022905Y-36615714D01*
X120118143Y-36568095D01*
X120165762Y-36520476D01*
X120213381Y-36425238D01*
X120213381Y-36234761D01*
X120165762Y-36139523D01*
X120118143Y-36091904D01*
X120022905Y-36044285D01*
X119784810Y-36044285D01*
X119689571Y-36091904D01*
X119641952Y-36139523D01*
X119594333Y-36234761D01*
X119594333Y-36425238D01*
X119641952Y-36520476D01*
X119689571Y-36568095D01*
X119784810Y-36615714D01*
X87066381Y-31154666D02*
X86590190Y-31488000D01*
X87066381Y-31726095D02*
X86066381Y-31726095D01*
X86066381Y-31345142D01*
X86114000Y-31249904D01*
X86161619Y-31202285D01*
X86256857Y-31154666D01*
X86399714Y-31154666D01*
X86494952Y-31202285D01*
X86542571Y-31249904D01*
X86590190Y-31345142D01*
X86590190Y-31726095D01*
X86066381Y-30821333D02*
X86066381Y-30154666D01*
X87066381Y-30583238D01*
X54419667Y-77656381D02*
X54086333Y-77180190D01*
X53848238Y-77656381D02*
X53848238Y-76656381D01*
X54229191Y-76656381D01*
X54324429Y-76704000D01*
X54372048Y-76751619D01*
X54419667Y-76846857D01*
X54419667Y-76989714D01*
X54372048Y-77084952D01*
X54324429Y-77132571D01*
X54229191Y-77180190D01*
X53848238Y-77180190D01*
X54848238Y-77132571D02*
X55181572Y-77132571D01*
X55324429Y-77656381D02*
X54848238Y-77656381D01*
X54848238Y-76656381D01*
X55324429Y-76656381D01*
X56086334Y-77132571D02*
X55753000Y-77132571D01*
X55753000Y-77656381D02*
X55753000Y-76656381D01*
X56229191Y-76656381D01*
X56753000Y-76656381D02*
X56753000Y-76894476D01*
X56514905Y-76799238D02*
X56753000Y-76894476D01*
X56991096Y-76799238D01*
X56610143Y-77084952D02*
X56753000Y-76894476D01*
X56895858Y-77084952D01*
X57514905Y-76656381D02*
X57514905Y-76894476D01*
X57276810Y-76799238D02*
X57514905Y-76894476D01*
X57753001Y-76799238D01*
X57372048Y-77084952D02*
X57514905Y-76894476D01*
X57657763Y-77084952D01*
X122072381Y-50068095D02*
X122881905Y-50068095D01*
X122977143Y-50020476D01*
X123024762Y-49972857D01*
X123072381Y-49877619D01*
X123072381Y-49687142D01*
X123024762Y-49591904D01*
X122977143Y-49544285D01*
X122881905Y-49496666D01*
X122072381Y-49496666D01*
X122167619Y-49068095D02*
X122120000Y-49020476D01*
X122072381Y-48925238D01*
X122072381Y-48687142D01*
X122120000Y-48591904D01*
X122167619Y-48544285D01*
X122262857Y-48496666D01*
X122358095Y-48496666D01*
X122500952Y-48544285D01*
X123072381Y-49115714D01*
X123072381Y-48496666D01*
X122072381Y-47877619D02*
X122072381Y-47782380D01*
X122120000Y-47687142D01*
X122167619Y-47639523D01*
X122262857Y-47591904D01*
X122453333Y-47544285D01*
X122691429Y-47544285D01*
X122881905Y-47591904D01*
X122977143Y-47639523D01*
X123024762Y-47687142D01*
X123072381Y-47782380D01*
X123072381Y-47877619D01*
X123024762Y-47972857D01*
X122977143Y-48020476D01*
X122881905Y-48068095D01*
X122691429Y-48115714D01*
X122453333Y-48115714D01*
X122262857Y-48068095D01*
X122167619Y-48020476D01*
X122120000Y-47972857D01*
X122072381Y-47877619D01*
X122829524Y-25482381D02*
X122353333Y-25482381D01*
X122305714Y-25958571D01*
X122353333Y-25910952D01*
X122448571Y-25863333D01*
X122686667Y-25863333D01*
X122781905Y-25910952D01*
X122829524Y-25958571D01*
X122877143Y-26053810D01*
X122877143Y-26291905D01*
X122829524Y-26387143D01*
X122781905Y-26434762D01*
X122686667Y-26482381D01*
X122448571Y-26482381D01*
X122353333Y-26434762D01*
X122305714Y-26387143D01*
X123162857Y-25482381D02*
X123496190Y-26482381D01*
X123829524Y-25482381D01*
X119072381Y-36544285D02*
X118072381Y-36544285D01*
X118072381Y-36306190D01*
X118120000Y-36163332D01*
X118215238Y-36068094D01*
X118310476Y-36020475D01*
X118500952Y-35972856D01*
X118643810Y-35972856D01*
X118834286Y-36020475D01*
X118929524Y-36068094D01*
X119024762Y-36163332D01*
X119072381Y-36306190D01*
X119072381Y-36544285D01*
X119072381Y-35020475D02*
X119072381Y-35591904D01*
X119072381Y-35306190D02*
X118072381Y-35306190D01*
X118215238Y-35401428D01*
X118310476Y-35496666D01*
X118358095Y-35591904D01*
X119072381Y-33829999D02*
X118405714Y-33829999D01*
X118500952Y-33829999D02*
X118453333Y-33782380D01*
X118405714Y-33687142D01*
X118405714Y-33544284D01*
X118453333Y-33449046D01*
X118548571Y-33401427D01*
X119072381Y-33401427D01*
X118548571Y-33401427D02*
X118453333Y-33353808D01*
X118405714Y-33258570D01*
X118405714Y-33115713D01*
X118453333Y-33020475D01*
X118548571Y-32972856D01*
X119072381Y-32972856D01*
X119072381Y-32496666D02*
X118405714Y-32496666D01*
X118072381Y-32496666D02*
X118120000Y-32544285D01*
X118167619Y-32496666D01*
X118120000Y-32449047D01*
X118072381Y-32496666D01*
X118167619Y-32496666D01*
X118405714Y-32020476D02*
X119072381Y-32020476D01*
X118500952Y-32020476D02*
X118453333Y-31972857D01*
X118405714Y-31877619D01*
X118405714Y-31734761D01*
X118453333Y-31639523D01*
X118548571Y-31591904D01*
X119072381Y-31591904D01*
X119072381Y-31115714D02*
X118405714Y-31115714D01*
X118072381Y-31115714D02*
X118120000Y-31163333D01*
X118167619Y-31115714D01*
X118120000Y-31068095D01*
X118072381Y-31115714D01*
X118167619Y-31115714D01*
%LPC*%
D14*
X112268000Y-101020000D03*
X112268000Y-96520000D03*
X118768000Y-101020000D03*
X118768000Y-96520000D03*
D15*
X53340000Y-110998000D03*
D16*
X50800000Y-110998000D03*
X53340000Y-108458000D03*
X50800000Y-108458000D03*
X53340000Y-105918000D03*
X50800000Y-105918000D03*
X53340000Y-103378000D03*
X50800000Y-103378000D03*
X53340000Y-100838000D03*
X50800000Y-100838000D03*
X53340000Y-98298000D03*
X50800000Y-98298000D03*
X53340000Y-95758000D03*
X50800000Y-95758000D03*
X53340000Y-93218000D03*
X50800000Y-93218000D03*
D15*
X58039000Y-93091000D03*
D16*
X60579000Y-93091000D03*
X58039000Y-95631000D03*
X60579000Y-95631000D03*
X58039000Y-98171000D03*
X60579000Y-98171000D03*
X58039000Y-100711000D03*
X60579000Y-100711000D03*
X58039000Y-103251000D03*
X60579000Y-103251000D03*
X58039000Y-105791000D03*
X60579000Y-105791000D03*
X58039000Y-108331000D03*
X60579000Y-108331000D03*
X58039000Y-110871000D03*
X60579000Y-110871000D03*
X58039000Y-113411000D03*
X60579000Y-113411000D03*
X58039000Y-115951000D03*
X60579000Y-115951000D03*
X58039000Y-118491000D03*
X60579000Y-118491000D03*
X58039000Y-121031000D03*
X60579000Y-121031000D03*
X58039000Y-123571000D03*
X60579000Y-123571000D03*
D17*
X99060000Y-31242000D03*
X94180000Y-31242000D03*
D18*
X79248000Y-39116000D03*
X79248000Y-34116000D03*
D15*
X111760000Y-49784000D03*
D16*
X111760000Y-47244000D03*
X114300000Y-49784000D03*
X114300000Y-47244000D03*
X116840000Y-49784000D03*
X116840000Y-47244000D03*
D18*
X92964000Y-26924000D03*
X87964000Y-26924000D03*
X96774000Y-26924000D03*
X101774000Y-26924000D03*
X80010000Y-43180000D03*
X75010000Y-43180000D03*
X104140000Y-32004000D03*
X104140000Y-27004000D03*
D19*
X76454000Y-30480000D03*
D18*
X76454000Y-27980000D03*
D20*
X114046000Y-29464000D03*
D21*
X114046000Y-32004000D03*
D20*
X109474000Y-29464000D03*
D21*
X109474000Y-32004000D03*
D20*
X118618000Y-29464000D03*
D21*
X118618000Y-32004000D03*
D15*
X54610000Y-53340000D03*
D16*
X57150000Y-53340000D03*
X54610000Y-55880000D03*
X57150000Y-55880000D03*
X54610000Y-58420000D03*
X57150000Y-58420000D03*
X54610000Y-60960000D03*
X57150000Y-60960000D03*
X54610000Y-63500000D03*
X57150000Y-63500000D03*
X54610000Y-66040000D03*
X57150000Y-66040000D03*
X54610000Y-68580000D03*
X57150000Y-68580000D03*
X54610000Y-71120000D03*
X57150000Y-71120000D03*
D22*
X68072000Y-33782000D03*
X68072000Y-27782000D03*
X63372000Y-30782000D03*
D19*
X72644000Y-39878000D03*
D18*
X72644000Y-37378000D03*
X62484000Y-37846000D03*
X62484000Y-42846000D03*
D19*
X115443000Y-53086000D03*
D23*
X123063000Y-70866000D03*
X115443000Y-55626000D03*
X123063000Y-68326000D03*
X115443000Y-58166000D03*
X123063000Y-65786000D03*
X115443000Y-60706000D03*
X123063000Y-63246000D03*
X115443000Y-63246000D03*
X123063000Y-60706000D03*
X115443000Y-65786000D03*
X123063000Y-58166000D03*
X115443000Y-68326000D03*
X123063000Y-55626000D03*
X115443000Y-70866000D03*
X123063000Y-53086000D03*
D19*
X51816000Y-29210000D03*
D23*
X59436000Y-46990000D03*
X51816000Y-31750000D03*
X59436000Y-44450000D03*
X51816000Y-34290000D03*
X59436000Y-41910000D03*
X51816000Y-36830000D03*
X59436000Y-39370000D03*
X51816000Y-39370000D03*
X59436000Y-36830000D03*
X51816000Y-41910000D03*
X59436000Y-34290000D03*
X51816000Y-44450000D03*
X59436000Y-31750000D03*
X51816000Y-46990000D03*
X59436000Y-29210000D03*
D19*
X104013000Y-53086000D03*
D23*
X111633000Y-70866000D03*
X104013000Y-55626000D03*
X111633000Y-68326000D03*
X104013000Y-58166000D03*
X111633000Y-65786000D03*
X104013000Y-60706000D03*
X111633000Y-63246000D03*
X104013000Y-63246000D03*
X111633000Y-60706000D03*
X104013000Y-65786000D03*
X111633000Y-58166000D03*
X104013000Y-68326000D03*
X111633000Y-55626000D03*
X104013000Y-70866000D03*
X111633000Y-53086000D03*
D19*
X92583000Y-74041000D03*
D23*
X100203000Y-91821000D03*
X92583000Y-76581000D03*
X100203000Y-89281000D03*
X92583000Y-79121000D03*
X100203000Y-86741000D03*
X92583000Y-81661000D03*
X100203000Y-84201000D03*
X92583000Y-84201000D03*
X100203000Y-81661000D03*
X92583000Y-86741000D03*
X100203000Y-79121000D03*
X92583000Y-89281000D03*
X100203000Y-76581000D03*
X92583000Y-91821000D03*
X100203000Y-74041000D03*
D19*
X26670000Y-34290000D03*
D23*
X44450000Y-26670000D03*
X29210000Y-34290000D03*
X41910000Y-26670000D03*
X31750000Y-34290000D03*
X39370000Y-26670000D03*
X34290000Y-34290000D03*
X36830000Y-26670000D03*
X36830000Y-34290000D03*
X34290000Y-26670000D03*
X39370000Y-34290000D03*
X31750000Y-26670000D03*
X41910000Y-34290000D03*
X29210000Y-26670000D03*
X44450000Y-34290000D03*
X26670000Y-26670000D03*
D19*
X26670000Y-123495758D03*
D23*
X44450000Y-115875758D03*
X29210000Y-123495758D03*
X41910000Y-115875758D03*
X31750000Y-123495758D03*
X39370000Y-115875758D03*
X34290000Y-123495758D03*
X36830000Y-115875758D03*
X36830000Y-123495758D03*
X34290000Y-115875758D03*
X39370000Y-123495758D03*
X31750000Y-115875758D03*
X41910000Y-123495758D03*
X29210000Y-115875758D03*
X44450000Y-123495758D03*
X26670000Y-115875758D03*
D19*
X115443000Y-74041000D03*
D23*
X123063000Y-91821000D03*
X115443000Y-76581000D03*
X123063000Y-89281000D03*
X115443000Y-79121000D03*
X123063000Y-86741000D03*
X115443000Y-81661000D03*
X123063000Y-84201000D03*
X115443000Y-84201000D03*
X123063000Y-81661000D03*
X115443000Y-86741000D03*
X123063000Y-79121000D03*
X115443000Y-89281000D03*
X123063000Y-76581000D03*
X115443000Y-91821000D03*
X123063000Y-74041000D03*
D19*
X26670000Y-80315758D03*
D23*
X44450000Y-72695758D03*
X29210000Y-80315758D03*
X41910000Y-72695758D03*
X31750000Y-80315758D03*
X39370000Y-72695758D03*
X34290000Y-80315758D03*
X36830000Y-72695758D03*
X36830000Y-80315758D03*
X34290000Y-72695758D03*
X39370000Y-80315758D03*
X31750000Y-72695758D03*
X41910000Y-80315758D03*
X29210000Y-72695758D03*
X44450000Y-80315758D03*
X26670000Y-72695758D03*
D19*
X92583000Y-53086000D03*
D23*
X100203000Y-70866000D03*
X92583000Y-55626000D03*
X100203000Y-68326000D03*
X92583000Y-58166000D03*
X100203000Y-65786000D03*
X92583000Y-60706000D03*
X100203000Y-63246000D03*
X92583000Y-63246000D03*
X100203000Y-60706000D03*
X92583000Y-65786000D03*
X100203000Y-58166000D03*
X92583000Y-68326000D03*
X100203000Y-55626000D03*
X92583000Y-70866000D03*
X100203000Y-53086000D03*
D19*
X104013000Y-74041000D03*
D23*
X111633000Y-91821000D03*
X104013000Y-76581000D03*
X111633000Y-89281000D03*
X104013000Y-79121000D03*
X111633000Y-86741000D03*
X104013000Y-81661000D03*
X111633000Y-84201000D03*
X104013000Y-84201000D03*
X111633000Y-81661000D03*
X104013000Y-86741000D03*
X111633000Y-79121000D03*
X104013000Y-89281000D03*
X111633000Y-76581000D03*
X104013000Y-91821000D03*
X111633000Y-74041000D03*
D19*
X26670000Y-45085000D03*
D23*
X44450000Y-37465000D03*
X29210000Y-45085000D03*
X41910000Y-37465000D03*
X31750000Y-45085000D03*
X39370000Y-37465000D03*
X34290000Y-45085000D03*
X36830000Y-37465000D03*
X36830000Y-45085000D03*
X34290000Y-37465000D03*
X39370000Y-45085000D03*
X31750000Y-37465000D03*
X41910000Y-45085000D03*
X29210000Y-37465000D03*
X44450000Y-45085000D03*
X26670000Y-37465000D03*
D19*
X26670000Y-112700758D03*
D23*
X44450000Y-105080758D03*
X29210000Y-112700758D03*
X41910000Y-105080758D03*
X31750000Y-112700758D03*
X39370000Y-105080758D03*
X34290000Y-112700758D03*
X36830000Y-105080758D03*
X36830000Y-112700758D03*
X34290000Y-105080758D03*
X39370000Y-112700758D03*
X31750000Y-105080758D03*
X41910000Y-112700758D03*
X29210000Y-105080758D03*
X44450000Y-112700758D03*
X26670000Y-105080758D03*
D19*
X115443000Y-105791000D03*
D23*
X123063000Y-123571000D03*
X115443000Y-108331000D03*
X123063000Y-121031000D03*
X115443000Y-110871000D03*
X123063000Y-118491000D03*
X115443000Y-113411000D03*
X123063000Y-115951000D03*
X115443000Y-115951000D03*
X123063000Y-113411000D03*
X115443000Y-118491000D03*
X123063000Y-110871000D03*
X115443000Y-121031000D03*
X123063000Y-108331000D03*
X115443000Y-123571000D03*
X123063000Y-105791000D03*
D19*
X81153000Y-53086000D03*
D23*
X88773000Y-70866000D03*
X81153000Y-55626000D03*
X88773000Y-68326000D03*
X81153000Y-58166000D03*
X88773000Y-65786000D03*
X81153000Y-60706000D03*
X88773000Y-63246000D03*
X81153000Y-63246000D03*
X88773000Y-60706000D03*
X81153000Y-65786000D03*
X88773000Y-58166000D03*
X81153000Y-68326000D03*
X88773000Y-55626000D03*
X81153000Y-70866000D03*
X88773000Y-53086000D03*
D19*
X104013000Y-105791000D03*
D23*
X111633000Y-123571000D03*
X104013000Y-108331000D03*
X111633000Y-121031000D03*
X104013000Y-110871000D03*
X111633000Y-118491000D03*
X104013000Y-113411000D03*
X111633000Y-115951000D03*
X104013000Y-115951000D03*
X111633000Y-113411000D03*
X104013000Y-118491000D03*
X111633000Y-110871000D03*
X104013000Y-121031000D03*
X111633000Y-108331000D03*
X104013000Y-123571000D03*
X111633000Y-105791000D03*
D19*
X26670000Y-55880000D03*
D23*
X44450000Y-48260000D03*
X29210000Y-55880000D03*
X41910000Y-48260000D03*
X31750000Y-55880000D03*
X39370000Y-48260000D03*
X34290000Y-55880000D03*
X36830000Y-48260000D03*
X36830000Y-55880000D03*
X34290000Y-48260000D03*
X39370000Y-55880000D03*
X31750000Y-48260000D03*
X41910000Y-55880000D03*
X29210000Y-48260000D03*
X44450000Y-55880000D03*
X26670000Y-48260000D03*
D19*
X26670000Y-101905758D03*
D23*
X44450000Y-94285758D03*
X29210000Y-101905758D03*
X41910000Y-94285758D03*
X31750000Y-101905758D03*
X39370000Y-94285758D03*
X34290000Y-101905758D03*
X36830000Y-94285758D03*
X36830000Y-101905758D03*
X34290000Y-94285758D03*
X39370000Y-101905758D03*
X31750000Y-94285758D03*
X41910000Y-101905758D03*
X29210000Y-94285758D03*
X44450000Y-101905758D03*
X26670000Y-94285758D03*
D19*
X69723000Y-53086000D03*
D23*
X77343000Y-70866000D03*
X69723000Y-55626000D03*
X77343000Y-68326000D03*
X69723000Y-58166000D03*
X77343000Y-65786000D03*
X69723000Y-60706000D03*
X77343000Y-63246000D03*
X69723000Y-63246000D03*
X77343000Y-60706000D03*
X69723000Y-65786000D03*
X77343000Y-58166000D03*
X69723000Y-68326000D03*
X77343000Y-55626000D03*
X69723000Y-70866000D03*
X77343000Y-53086000D03*
D19*
X92583000Y-105791000D03*
D23*
X100203000Y-123571000D03*
X92583000Y-108331000D03*
X100203000Y-121031000D03*
X92583000Y-110871000D03*
X100203000Y-118491000D03*
X92583000Y-113411000D03*
X100203000Y-115951000D03*
X92583000Y-115951000D03*
X100203000Y-113411000D03*
X92583000Y-118491000D03*
X100203000Y-110871000D03*
X92583000Y-121031000D03*
X100203000Y-108331000D03*
X92583000Y-123571000D03*
X100203000Y-105791000D03*
D19*
X26670000Y-66675000D03*
D23*
X44450000Y-59055000D03*
X29210000Y-66675000D03*
X41910000Y-59055000D03*
X31750000Y-66675000D03*
X39370000Y-59055000D03*
X34290000Y-66675000D03*
X36830000Y-59055000D03*
X36830000Y-66675000D03*
X34290000Y-59055000D03*
X39370000Y-66675000D03*
X31750000Y-59055000D03*
X41910000Y-66675000D03*
X29210000Y-59055000D03*
X44450000Y-66675000D03*
X26670000Y-59055000D03*
D19*
X26670000Y-91110758D03*
D23*
X44450000Y-83490758D03*
X29210000Y-91110758D03*
X41910000Y-83490758D03*
X31750000Y-91110758D03*
X39370000Y-83490758D03*
X34290000Y-91110758D03*
X36830000Y-83490758D03*
X36830000Y-91110758D03*
X34290000Y-83490758D03*
X39370000Y-91110758D03*
X31750000Y-83490758D03*
X41910000Y-91110758D03*
X29210000Y-83490758D03*
X44450000Y-91110758D03*
X26670000Y-83490758D03*
D19*
X69723000Y-74041000D03*
D23*
X77343000Y-91821000D03*
X69723000Y-76581000D03*
X77343000Y-89281000D03*
X69723000Y-79121000D03*
X77343000Y-86741000D03*
X69723000Y-81661000D03*
X77343000Y-84201000D03*
X69723000Y-84201000D03*
X77343000Y-81661000D03*
X69723000Y-86741000D03*
X77343000Y-79121000D03*
X69723000Y-89281000D03*
X77343000Y-76581000D03*
X69723000Y-91821000D03*
X77343000Y-74041000D03*
D19*
X81153000Y-105791000D03*
D23*
X88773000Y-123571000D03*
X81153000Y-108331000D03*
X88773000Y-121031000D03*
X81153000Y-110871000D03*
X88773000Y-118491000D03*
X81153000Y-113411000D03*
X88773000Y-115951000D03*
X81153000Y-115951000D03*
X88773000Y-113411000D03*
X81153000Y-118491000D03*
X88773000Y-110871000D03*
X81153000Y-121031000D03*
X88773000Y-108331000D03*
X81153000Y-123571000D03*
X88773000Y-105791000D03*
D19*
X81153000Y-74041000D03*
D23*
X88773000Y-91821000D03*
X81153000Y-76581000D03*
X88773000Y-89281000D03*
X81153000Y-79121000D03*
X88773000Y-86741000D03*
X81153000Y-81661000D03*
X88773000Y-84201000D03*
X81153000Y-84201000D03*
X88773000Y-81661000D03*
X81153000Y-86741000D03*
X88773000Y-79121000D03*
X81153000Y-89281000D03*
X88773000Y-76581000D03*
X81153000Y-91821000D03*
X88773000Y-74041000D03*
D19*
X69723000Y-105791000D03*
D23*
X77343000Y-123571000D03*
X69723000Y-108331000D03*
X77343000Y-121031000D03*
X69723000Y-110871000D03*
X77343000Y-118491000D03*
X69723000Y-113411000D03*
X77343000Y-115951000D03*
X69723000Y-115951000D03*
X77343000Y-113411000D03*
X69723000Y-118491000D03*
X77343000Y-110871000D03*
X69723000Y-121031000D03*
X77343000Y-108331000D03*
X69723000Y-123571000D03*
X77343000Y-105791000D03*
D19*
X115824000Y-35560000D03*
D23*
X82804000Y-43180000D03*
X113284000Y-35560000D03*
X85344000Y-43180000D03*
X110744000Y-35560000D03*
X87884000Y-43180000D03*
X108204000Y-35560000D03*
X90424000Y-43180000D03*
X105664000Y-35560000D03*
X92964000Y-43180000D03*
X103124000Y-35560000D03*
X95504000Y-43180000D03*
X100584000Y-35560000D03*
X98044000Y-43180000D03*
X98044000Y-35560000D03*
X100584000Y-43180000D03*
X95504000Y-35560000D03*
X103124000Y-43180000D03*
X92964000Y-35560000D03*
X105664000Y-43180000D03*
X90424000Y-35560000D03*
X108204000Y-43180000D03*
X87884000Y-35560000D03*
X110744000Y-43180000D03*
X85344000Y-35560000D03*
X113284000Y-43180000D03*
X82804000Y-35560000D03*
X115824000Y-43180000D03*
D20*
X66548000Y-39116000D03*
D24*
X66548000Y-41656000D03*
X66548000Y-44196000D03*
D25*
X120904000Y-43180000D03*
D26*
X120904000Y-40640000D03*
D25*
X118364000Y-40640000D03*
D26*
X118364000Y-43180000D03*
D25*
X119888000Y-26924000D03*
D26*
X117348000Y-26924000D03*
D25*
X112776000Y-26924000D03*
D26*
X115316000Y-26924000D03*
D25*
X107950000Y-26924000D03*
D26*
X110490000Y-26924000D03*
D25*
X118364000Y-38100000D03*
D26*
X118364000Y-35560000D03*
D25*
X87884000Y-32512000D03*
D26*
X87884000Y-29972000D03*
D27*
X55753000Y-82804000D03*
D28*
X123190000Y-27940000D03*
X123190000Y-30480000D03*
X123190000Y-33020000D03*
X123190000Y-35560000D03*
X123190000Y-38100000D03*
X123190000Y-40640000D03*
X123190000Y-43180000D03*
X123190000Y-45720000D03*
M02*
